<?xml version="1.0" encoding="utf-8" standalone="no"?>
<!DOCTYPE svg PUBLIC "-//W3C//DTD SVG 1.1//EN"
  "http://www.w3.org/Graphics/SVG/1.1/DTD/svg11.dtd">
<!-- Created with matplotlib (https://matplotlib.org/) -->
<svg height="360pt" version="1.1" viewBox="0 0 504 360" width="504pt" xmlns="http://www.w3.org/2000/svg" xmlns:xlink="http://www.w3.org/1999/xlink">
 <metadata>
  <rdf:RDF xmlns:cc="http://creativecommons.org/ns#" xmlns:dc="http://purl.org/dc/elements/1.1/" xmlns:rdf="http://www.w3.org/1999/02/22-rdf-syntax-ns#">
   <cc:Work>
    <dc:type rdf:resource="http://purl.org/dc/dcmitype/StillImage"/>
    <dc:date>2023-01-25T12:44:29.478010</dc:date>
    <dc:format>image/svg+xml</dc:format>
    <dc:creator>
     <cc:Agent>
      <dc:title>Matplotlib v3.3.4, https://matplotlib.org/</dc:title>
     </cc:Agent>
    </dc:creator>
   </cc:Work>
  </rdf:RDF>
 </metadata>
 <defs>
  <style type="text/css">*{stroke-linecap:butt;stroke-linejoin:round;}</style>
 </defs>
 <g id="figure_1">
  <g id="patch_1">
   <path d="M 0 360 
L 504 360 
L 504 0 
L 0 0 
z
" style="fill:#ffffff;"/>
  </g>
  <g id="axes_1">
   <g id="patch_2">
    <path d="M 63 315 
L 453.6 315 
L 453.6 43.2 
L 63 43.2 
z
" style="fill:#eeeeee;"/>
   </g>
   <g id="patch_3">
    <path clip-path="url(#p2aa60adc5f)" d="M 80.754545 74431.867062 
L 87.158991 74431.867062 
L 87.158991 55.554545 
L 80.754545 55.554545 
z
" style="fill:#669bbc;"/>
   </g>
   <g id="patch_4">
    <path clip-path="url(#p2aa60adc5f)" d="M 87.870596 74431.867062 
L 94.275041 74431.867062 
L 94.275041 158.502468 
L 87.870596 158.502468 
z
" style="fill:#669bbc;"/>
   </g>
   <g id="patch_5">
    <path clip-path="url(#p2aa60adc5f)" d="M 94.986646 74431.867062 
L 101.391091 74431.867062 
L 101.391091 163.648623 
L 94.986646 163.648623 
z
" style="fill:#669bbc;"/>
   </g>
   <g id="patch_6">
    <path clip-path="url(#p2aa60adc5f)" d="M 102.102696 74431.867062 
L 108.507142 74431.867062 
L 108.507142 156.379023 
L 102.102696 156.379023 
z
" style="fill:#669bbc;"/>
   </g>
   <g id="patch_7">
    <path clip-path="url(#p2aa60adc5f)" d="M 109.218747 74431.867062 
L 115.623192 74431.867062 
L 115.623192 162.385954 
L 109.218747 162.385954 
z
" style="fill:#669bbc;"/>
   </g>
   <g id="patch_8">
    <path clip-path="url(#p2aa60adc5f)" d="M 116.334797 74431.867062 
L 122.739242 74431.867062 
L 122.739242 155.701231 
L 116.334797 155.701231 
z
" style="fill:#669bbc;"/>
   </g>
   <g id="patch_9">
    <path clip-path="url(#p2aa60adc5f)" d="M 123.450847 74431.867062 
L 129.855292 74431.867062 
L 129.855292 147.461735 
L 123.450847 147.461735 
z
" style="fill:#669bbc;"/>
   </g>
   <g id="patch_10">
    <path clip-path="url(#p2aa60adc5f)" d="M 130.566897 74431.867062 
L 136.971343 74431.867062 
L 136.971343 153.435398 
L 130.566897 153.435398 
z
" style="fill:#669bbc;"/>
   </g>
   <g id="patch_11">
    <path clip-path="url(#p2aa60adc5f)" d="M 137.682948 74431.867062 
L 144.087393 74431.867062 
L 144.087393 147.985224 
L 137.682948 147.985224 
z
" style="fill:#669bbc;"/>
   </g>
   <g id="patch_12">
    <path clip-path="url(#p2aa60adc5f)" d="M 144.798998 74431.867062 
L 151.203443 74431.867062 
L 151.203443 147.461735 
L 144.798998 147.461735 
z
" style="fill:#669bbc;"/>
   </g>
   <g id="patch_13">
    <path clip-path="url(#p2aa60adc5f)" d="M 151.915048 74431.867062 
L 158.319494 74431.867062 
L 158.319494 156.723346 
L 151.915048 156.723346 
z
" style="fill:#669bbc;"/>
   </g>
   <g id="patch_14">
    <path clip-path="url(#p2aa60adc5f)" d="M 159.031099 74431.867062 
L 165.435544 74431.867062 
L 165.435544 160.775923 
L 159.031099 160.775923 
z
" style="fill:#669bbc;"/>
   </g>
   <g id="patch_15">
    <path clip-path="url(#p2aa60adc5f)" d="M 166.147149 74431.867062 
L 172.551594 74431.867062 
L 172.551594 153.124343 
L 166.147149 153.124343 
z
" style="fill:#669bbc;"/>
   </g>
   <g id="patch_16">
    <path clip-path="url(#p2aa60adc5f)" d="M 173.263199 74431.867062 
L 179.667644 74431.867062 
L 179.667644 165.869773 
L 173.263199 165.869773 
z
" style="fill:#669bbc;"/>
   </g>
   <g id="patch_17">
    <path clip-path="url(#p2aa60adc5f)" d="M 180.379249 74431.867062 
L 186.783695 74431.867062 
L 186.783695 169.26174 
L 180.379249 169.26174 
z
" style="fill:#669bbc;"/>
   </g>
   <g id="patch_18">
    <path clip-path="url(#p2aa60adc5f)" d="M 187.4953 74431.867062 
L 193.899745 74431.867062 
L 193.899745 173.053637 
L 187.4953 173.053637 
z
" style="fill:#669bbc;"/>
   </g>
   <g id="patch_19">
    <path clip-path="url(#p2aa60adc5f)" d="M 194.61135 74431.867062 
L 201.015795 74431.867062 
L 201.015795 179.386511 
L 194.61135 179.386511 
z
" style="fill:#669bbc;"/>
   </g>
   <g id="patch_20">
    <path clip-path="url(#p2aa60adc5f)" d="M 201.7274 74431.867062 
L 208.131846 74431.867062 
L 208.131846 178.694142 
L 201.7274 178.694142 
z
" style="fill:#669bbc;"/>
   </g>
   <g id="patch_21">
    <path clip-path="url(#p2aa60adc5f)" d="M 208.843451 74431.867062 
L 215.247896 74431.867062 
L 215.247896 179.386511 
L 208.843451 179.386511 
z
" style="fill:#669bbc;"/>
   </g>
   <g id="patch_22">
    <path clip-path="url(#p2aa60adc5f)" d="M 215.959501 74431.867062 
L 222.363946 74431.867062 
L 222.363946 192.091973 
L 215.959501 192.091973 
z
" style="fill:#669bbc;"/>
   </g>
   <g id="patch_23">
    <path clip-path="url(#p2aa60adc5f)" d="M 223.075551 74431.867062 
L 229.479996 74431.867062 
L 229.479996 204.630367 
L 223.075551 204.630367 
z
" style="fill:#669bbc;"/>
   </g>
   <g id="patch_24">
    <path clip-path="url(#p2aa60adc5f)" d="M 230.191601 74431.867062 
L 236.596047 74431.867062 
L 236.596047 196.539573 
L 230.191601 196.539573 
z
" style="fill:#669bbc;"/>
   </g>
   <g id="patch_25">
    <path clip-path="url(#p2aa60adc5f)" d="M 237.307652 74431.867062 
L 243.712097 74431.867062 
L 243.712097 206.201114 
L 237.307652 206.201114 
z
" style="fill:#669bbc;"/>
   </g>
   <g id="patch_26">
    <path clip-path="url(#p2aa60adc5f)" d="M 244.423702 74431.867062 
L 250.828147 74431.867062 
L 250.828147 211.433234 
L 244.423702 211.433234 
z
" style="fill:#669bbc;"/>
   </g>
   <g id="patch_27">
    <path clip-path="url(#p2aa60adc5f)" d="M 251.539752 74431.867062 
L 257.944197 74431.867062 
L 257.944197 231.9082 
L 251.539752 231.9082 
z
" style="fill:#669bbc;"/>
   </g>
   <g id="patch_28">
    <path clip-path="url(#p2aa60adc5f)" d="M 258.655803 74431.867062 
L 265.060248 74431.867062 
L 265.060248 213.384978 
L 258.655803 213.384978 
z
" style="fill:#669bbc;"/>
   </g>
   <g id="patch_29">
    <path clip-path="url(#p2aa60adc5f)" d="M 265.771853 74431.867062 
L 272.176298 74431.867062 
L 272.176298 244.961708 
L 265.771853 244.961708 
z
" style="fill:#669bbc;"/>
   </g>
   <g id="patch_30">
    <path clip-path="url(#p2aa60adc5f)" d="M 272.887903 74431.867062 
L 279.292348 74431.867062 
L 279.292348 250.831352 
L 272.887903 250.831352 
z
" style="fill:#669bbc;"/>
   </g>
   <g id="patch_31">
    <path clip-path="url(#p2aa60adc5f)" d="M 280.003953 74431.867062 
L 286.408399 74431.867062 
L 286.408399 258.015216 
L 280.003953 258.015216 
z
" style="fill:#669bbc;"/>
   </g>
   <g id="patch_32">
    <path clip-path="url(#p2aa60adc5f)" d="M 287.120004 74431.867062 
L 293.524449 74431.867062 
L 293.524449 244.961708 
L 287.120004 244.961708 
z
" style="fill:#669bbc;"/>
   </g>
   <g id="patch_33">
    <path clip-path="url(#p2aa60adc5f)" d="M 294.236054 74431.867062 
L 300.640499 74431.867062 
L 300.640499 250.831352 
L 294.236054 250.831352 
z
" style="fill:#669bbc;"/>
   </g>
   <g id="patch_34">
    <path clip-path="url(#p2aa60adc5f)" d="M 301.352104 74431.867062 
L 307.756549 74431.867062 
L 307.756549 244.961708 
L 301.352104 244.961708 
z
" style="fill:#669bbc;"/>
   </g>
   <g id="patch_35">
    <path clip-path="url(#p2aa60adc5f)" d="M 308.468154 74431.867062 
L 314.8726 74431.867062 
L 314.8726 267.276827 
L 308.468154 267.276827 
z
" style="fill:#669bbc;"/>
   </g>
   <g id="patch_36">
    <path clip-path="url(#p2aa60adc5f)" d="M 315.584205 74431.867062 
L 321.98865 74431.867062 
L 321.98865 74431.867062 
L 315.584205 74431.867062 
z
" style="fill:#669bbc;"/>
   </g>
   <g id="patch_37">
    <path clip-path="url(#p2aa60adc5f)" d="M 322.700255 74431.867062 
L 329.1047 74431.867062 
L 329.1047 74431.867062 
L 322.700255 74431.867062 
z
" style="fill:#669bbc;"/>
   </g>
   <g id="patch_38">
    <path clip-path="url(#p2aa60adc5f)" d="M 329.816305 74431.867062 
L 336.220751 74431.867062 
L 336.220751 267.276827 
L 329.816305 267.276827 
z
" style="fill:#669bbc;"/>
   </g>
   <g id="patch_39">
    <path clip-path="url(#p2aa60adc5f)" d="M 336.932356 74431.867062 
L 343.336801 74431.867062 
L 343.336801 302.645455 
L 336.932356 302.645455 
z
" style="fill:#669bbc;"/>
   </g>
   <g id="patch_40">
    <path clip-path="url(#p2aa60adc5f)" d="M 344.048406 74431.867062 
L 350.452851 74431.867062 
L 350.452851 74431.867062 
L 344.048406 74431.867062 
z
" style="fill:#669bbc;"/>
   </g>
   <g id="patch_41">
    <path clip-path="url(#p2aa60adc5f)" d="M 351.164456 74431.867062 
L 357.568901 74431.867062 
L 357.568901 74431.867062 
L 351.164456 74431.867062 
z
" style="fill:#669bbc;"/>
   </g>
   <g id="patch_42">
    <path clip-path="url(#p2aa60adc5f)" d="M 358.280506 74431.867062 
L 364.684952 74431.867062 
L 364.684952 74431.867062 
L 358.280506 74431.867062 
z
" style="fill:#669bbc;"/>
   </g>
   <g id="patch_43">
    <path clip-path="url(#p2aa60adc5f)" d="M 365.396557 74431.867062 
L 371.801002 74431.867062 
L 371.801002 302.645455 
L 365.396557 302.645455 
z
" style="fill:#669bbc;"/>
   </g>
   <g id="patch_44">
    <path clip-path="url(#p2aa60adc5f)" d="M 372.512607 74431.867062 
L 378.917052 74431.867062 
L 378.917052 74431.867062 
L 372.512607 74431.867062 
z
" style="fill:#669bbc;"/>
   </g>
   <g id="patch_45">
    <path clip-path="url(#p2aa60adc5f)" d="M 379.628657 74431.867062 
L 386.033103 74431.867062 
L 386.033103 74431.867062 
L 379.628657 74431.867062 
z
" style="fill:#669bbc;"/>
   </g>
   <g id="patch_46">
    <path clip-path="url(#p2aa60adc5f)" d="M 386.744708 74431.867062 
L 393.149153 74431.867062 
L 393.149153 74431.867062 
L 386.744708 74431.867062 
z
" style="fill:#669bbc;"/>
   </g>
   <g id="patch_47">
    <path clip-path="url(#p2aa60adc5f)" d="M 393.860758 74431.867062 
L 400.265203 74431.867062 
L 400.265203 302.645455 
L 393.860758 302.645455 
z
" style="fill:#669bbc;"/>
   </g>
   <g id="patch_48">
    <path clip-path="url(#p2aa60adc5f)" d="M 400.976808 74431.867062 
L 407.381253 74431.867062 
L 407.381253 74431.867062 
L 400.976808 74431.867062 
z
" style="fill:#669bbc;"/>
   </g>
   <g id="patch_49">
    <path clip-path="url(#p2aa60adc5f)" d="M 408.092858 74431.867062 
L 414.497304 74431.867062 
L 414.497304 74431.867062 
L 408.092858 74431.867062 
z
" style="fill:#669bbc;"/>
   </g>
   <g id="patch_50">
    <path clip-path="url(#p2aa60adc5f)" d="M 415.208909 74431.867062 
L 421.613354 74431.867062 
L 421.613354 74431.867062 
L 415.208909 74431.867062 
z
" style="fill:#669bbc;"/>
   </g>
   <g id="patch_51">
    <path clip-path="url(#p2aa60adc5f)" d="M 422.324959 74431.867062 
L 428.729404 74431.867062 
L 428.729404 74431.867062 
L 422.324959 74431.867062 
z
" style="fill:#669bbc;"/>
   </g>
   <g id="patch_52">
    <path clip-path="url(#p2aa60adc5f)" d="M 429.441009 74431.867062 
L 435.845455 74431.867062 
L 435.845455 302.645455 
L 429.441009 302.645455 
z
" style="fill:#669bbc;"/>
   </g>
   <g id="matplotlib.axis_1">
    <g id="xtick_1">
     <g id="line2d_1">
      <defs>
       <path d="M 0 0 
L 0 -3.5 
" id="m57d1455efd" style="stroke:#000000;stroke-width:0.8;"/>
      </defs>
      <g>
       <use style="stroke:#000000;stroke-width:0.8;" x="80.398743" xlink:href="#m57d1455efd" y="315"/>
      </g>
     </g>
     <g id="text_1">
      <!-- 0 -->
      <g transform="translate(77.217493 326.098437)scale(0.1 -0.1)">
       <defs>
        <path d="M 31.78125 66.40625 
Q 24.171875 66.40625 20.328125 58.90625 
Q 16.5 51.421875 16.5 36.375 
Q 16.5 21.390625 20.328125 13.890625 
Q 24.171875 6.390625 31.78125 6.390625 
Q 39.453125 6.390625 43.28125 13.890625 
Q 47.125 21.390625 47.125 36.375 
Q 47.125 51.421875 43.28125 58.90625 
Q 39.453125 66.40625 31.78125 66.40625 
z
M 31.78125 74.21875 
Q 44.046875 74.21875 50.515625 64.515625 
Q 56.984375 54.828125 56.984375 36.375 
Q 56.984375 17.96875 50.515625 8.265625 
Q 44.046875 -1.421875 31.78125 -1.421875 
Q 19.53125 -1.421875 13.0625 8.265625 
Q 6.59375 17.96875 6.59375 36.375 
Q 6.59375 54.828125 13.0625 64.515625 
Q 19.53125 74.21875 31.78125 74.21875 
z
" id="DejaVuSans-48"/>
       </defs>
       <use xlink:href="#DejaVuSans-48"/>
      </g>
     </g>
    </g>
    <g id="xtick_2">
     <g id="line2d_2">
      <g>
       <use style="stroke:#000000;stroke-width:0.8;" x="144.623023" xlink:href="#m57d1455efd" y="315"/>
      </g>
     </g>
     <g id="text_2">
      <!-- 200 -->
      <g transform="translate(135.079273 326.098437)scale(0.1 -0.1)">
       <defs>
        <path d="M 19.1875 8.296875 
L 53.609375 8.296875 
L 53.609375 0 
L 7.328125 0 
L 7.328125 8.296875 
Q 12.9375 14.109375 22.625 23.890625 
Q 32.328125 33.6875 34.8125 36.53125 
Q 39.546875 41.84375 41.421875 45.53125 
Q 43.3125 49.21875 43.3125 52.78125 
Q 43.3125 58.59375 39.234375 62.25 
Q 35.15625 65.921875 28.609375 65.921875 
Q 23.96875 65.921875 18.8125 64.3125 
Q 13.671875 62.703125 7.8125 59.421875 
L 7.8125 69.390625 
Q 13.765625 71.78125 18.9375 73 
Q 24.125 74.21875 28.421875 74.21875 
Q 39.75 74.21875 46.484375 68.546875 
Q 53.21875 62.890625 53.21875 53.421875 
Q 53.21875 48.921875 51.53125 44.890625 
Q 49.859375 40.875 45.40625 35.40625 
Q 44.1875 33.984375 37.640625 27.21875 
Q 31.109375 20.453125 19.1875 8.296875 
z
" id="DejaVuSans-50"/>
       </defs>
       <use xlink:href="#DejaVuSans-50"/>
       <use x="63.623047" xlink:href="#DejaVuSans-48"/>
       <use x="127.246094" xlink:href="#DejaVuSans-48"/>
      </g>
     </g>
    </g>
    <g id="xtick_3">
     <g id="line2d_3">
      <g>
       <use style="stroke:#000000;stroke-width:0.8;" x="208.847304" xlink:href="#m57d1455efd" y="315"/>
      </g>
     </g>
     <g id="text_3">
      <!-- 400 -->
      <g transform="translate(199.303554 326.098437)scale(0.1 -0.1)">
       <defs>
        <path d="M 37.796875 64.3125 
L 12.890625 25.390625 
L 37.796875 25.390625 
z
M 35.203125 72.90625 
L 47.609375 72.90625 
L 47.609375 25.390625 
L 58.015625 25.390625 
L 58.015625 17.1875 
L 47.609375 17.1875 
L 47.609375 0 
L 37.796875 0 
L 37.796875 17.1875 
L 4.890625 17.1875 
L 4.890625 26.703125 
z
" id="DejaVuSans-52"/>
       </defs>
       <use xlink:href="#DejaVuSans-52"/>
       <use x="63.623047" xlink:href="#DejaVuSans-48"/>
       <use x="127.246094" xlink:href="#DejaVuSans-48"/>
      </g>
     </g>
    </g>
    <g id="xtick_4">
     <g id="line2d_4">
      <g>
       <use style="stroke:#000000;stroke-width:0.8;" x="273.071585" xlink:href="#m57d1455efd" y="315"/>
      </g>
     </g>
     <g id="text_4">
      <!-- 600 -->
      <g transform="translate(263.527835 326.098437)scale(0.1 -0.1)">
       <defs>
        <path d="M 33.015625 40.375 
Q 26.375 40.375 22.484375 35.828125 
Q 18.609375 31.296875 18.609375 23.390625 
Q 18.609375 15.53125 22.484375 10.953125 
Q 26.375 6.390625 33.015625 6.390625 
Q 39.65625 6.390625 43.53125 10.953125 
Q 47.40625 15.53125 47.40625 23.390625 
Q 47.40625 31.296875 43.53125 35.828125 
Q 39.65625 40.375 33.015625 40.375 
z
M 52.59375 71.296875 
L 52.59375 62.3125 
Q 48.875 64.0625 45.09375 64.984375 
Q 41.3125 65.921875 37.59375 65.921875 
Q 27.828125 65.921875 22.671875 59.328125 
Q 17.53125 52.734375 16.796875 39.40625 
Q 19.671875 43.65625 24.015625 45.921875 
Q 28.375 48.1875 33.59375 48.1875 
Q 44.578125 48.1875 50.953125 41.515625 
Q 57.328125 34.859375 57.328125 23.390625 
Q 57.328125 12.15625 50.6875 5.359375 
Q 44.046875 -1.421875 33.015625 -1.421875 
Q 20.359375 -1.421875 13.671875 8.265625 
Q 6.984375 17.96875 6.984375 36.375 
Q 6.984375 53.65625 15.1875 63.9375 
Q 23.390625 74.21875 37.203125 74.21875 
Q 40.921875 74.21875 44.703125 73.484375 
Q 48.484375 72.75 52.59375 71.296875 
z
" id="DejaVuSans-54"/>
       </defs>
       <use xlink:href="#DejaVuSans-54"/>
       <use x="63.623047" xlink:href="#DejaVuSans-48"/>
       <use x="127.246094" xlink:href="#DejaVuSans-48"/>
      </g>
     </g>
    </g>
    <g id="xtick_5">
     <g id="line2d_5">
      <g>
       <use style="stroke:#000000;stroke-width:0.8;" x="337.295865" xlink:href="#m57d1455efd" y="315"/>
      </g>
     </g>
     <g id="text_5">
      <!-- 800 -->
      <g transform="translate(327.752115 326.098437)scale(0.1 -0.1)">
       <defs>
        <path d="M 31.78125 34.625 
Q 24.75 34.625 20.71875 30.859375 
Q 16.703125 27.09375 16.703125 20.515625 
Q 16.703125 13.921875 20.71875 10.15625 
Q 24.75 6.390625 31.78125 6.390625 
Q 38.8125 6.390625 42.859375 10.171875 
Q 46.921875 13.96875 46.921875 20.515625 
Q 46.921875 27.09375 42.890625 30.859375 
Q 38.875 34.625 31.78125 34.625 
z
M 21.921875 38.8125 
Q 15.578125 40.375 12.03125 44.71875 
Q 8.5 49.078125 8.5 55.328125 
Q 8.5 64.0625 14.71875 69.140625 
Q 20.953125 74.21875 31.78125 74.21875 
Q 42.671875 74.21875 48.875 69.140625 
Q 55.078125 64.0625 55.078125 55.328125 
Q 55.078125 49.078125 51.53125 44.71875 
Q 48 40.375 41.703125 38.8125 
Q 48.828125 37.15625 52.796875 32.3125 
Q 56.78125 27.484375 56.78125 20.515625 
Q 56.78125 9.90625 50.3125 4.234375 
Q 43.84375 -1.421875 31.78125 -1.421875 
Q 19.734375 -1.421875 13.25 4.234375 
Q 6.78125 9.90625 6.78125 20.515625 
Q 6.78125 27.484375 10.78125 32.3125 
Q 14.796875 37.15625 21.921875 38.8125 
z
M 18.3125 54.390625 
Q 18.3125 48.734375 21.84375 45.5625 
Q 25.390625 42.390625 31.78125 42.390625 
Q 38.140625 42.390625 41.71875 45.5625 
Q 45.3125 48.734375 45.3125 54.390625 
Q 45.3125 60.0625 41.71875 63.234375 
Q 38.140625 66.40625 31.78125 66.40625 
Q 25.390625 66.40625 21.84375 63.234375 
Q 18.3125 60.0625 18.3125 54.390625 
z
" id="DejaVuSans-56"/>
       </defs>
       <use xlink:href="#DejaVuSans-56"/>
       <use x="63.623047" xlink:href="#DejaVuSans-48"/>
       <use x="127.246094" xlink:href="#DejaVuSans-48"/>
      </g>
     </g>
    </g>
    <g id="xtick_6">
     <g id="line2d_6">
      <g>
       <use style="stroke:#000000;stroke-width:0.8;" x="401.520146" xlink:href="#m57d1455efd" y="315"/>
      </g>
     </g>
     <g id="text_6">
      <!-- 1000 -->
      <g transform="translate(388.795146 326.098437)scale(0.1 -0.1)">
       <defs>
        <path d="M 12.40625 8.296875 
L 28.515625 8.296875 
L 28.515625 63.921875 
L 10.984375 60.40625 
L 10.984375 69.390625 
L 28.421875 72.90625 
L 38.28125 72.90625 
L 38.28125 8.296875 
L 54.390625 8.296875 
L 54.390625 0 
L 12.40625 0 
z
" id="DejaVuSans-49"/>
       </defs>
       <use xlink:href="#DejaVuSans-49"/>
       <use x="63.623047" xlink:href="#DejaVuSans-48"/>
       <use x="127.246094" xlink:href="#DejaVuSans-48"/>
       <use x="190.869141" xlink:href="#DejaVuSans-48"/>
      </g>
     </g>
    </g>
    <g id="text_7">
     <!-- Tamaño del subárbol -->
     <g transform="translate(188.68125 342.914844)scale(0.15 -0.15)">
      <defs>
       <path d="M 25.921875 0 
L 25.921875 63.140625 
L 2.34375 63.140625 
L 2.34375 71.578125 
L 59.078125 71.578125 
L 59.078125 63.140625 
L 35.40625 63.140625 
L 35.40625 0 
z
" id="ArialMT-84"/>
       <path d="M 40.4375 6.390625 
Q 35.546875 2.25 31.03125 0.53125 
Q 26.515625 -1.171875 21.34375 -1.171875 
Q 12.796875 -1.171875 8.203125 3 
Q 3.609375 7.171875 3.609375 13.671875 
Q 3.609375 17.484375 5.34375 20.625 
Q 7.078125 23.78125 9.890625 25.6875 
Q 12.703125 27.59375 16.21875 28.5625 
Q 18.796875 29.25 24.03125 29.890625 
Q 34.671875 31.15625 39.703125 32.90625 
Q 39.75 34.71875 39.75 35.203125 
Q 39.75 40.578125 37.25 42.78125 
Q 33.890625 45.75 27.25 45.75 
Q 21.046875 45.75 18.09375 43.578125 
Q 15.140625 41.40625 13.71875 35.890625 
L 5.125 37.0625 
Q 6.296875 42.578125 8.984375 45.96875 
Q 11.671875 49.359375 16.75 51.1875 
Q 21.828125 53.03125 28.515625 53.03125 
Q 35.15625 53.03125 39.296875 51.46875 
Q 43.453125 49.90625 45.40625 47.53125 
Q 47.359375 45.171875 48.140625 41.546875 
Q 48.578125 39.3125 48.578125 33.453125 
L 48.578125 21.734375 
Q 48.578125 9.46875 49.140625 6.21875 
Q 49.703125 2.984375 51.375 0 
L 42.1875 0 
Q 40.828125 2.734375 40.4375 6.390625 
z
M 39.703125 26.03125 
Q 34.90625 24.078125 25.34375 22.703125 
Q 19.921875 21.921875 17.671875 20.9375 
Q 15.4375 19.96875 14.203125 18.09375 
Q 12.984375 16.21875 12.984375 13.921875 
Q 12.984375 10.40625 15.640625 8.0625 
Q 18.3125 5.71875 23.4375 5.71875 
Q 28.515625 5.71875 32.46875 7.9375 
Q 36.421875 10.15625 38.28125 14.015625 
Q 39.703125 17 39.703125 22.796875 
z
" id="ArialMT-97"/>
       <path d="M 6.59375 0 
L 6.59375 51.859375 
L 14.453125 51.859375 
L 14.453125 44.578125 
Q 16.890625 48.390625 20.9375 50.703125 
Q 25 53.03125 30.171875 53.03125 
Q 35.9375 53.03125 39.625 50.640625 
Q 43.3125 48.25 44.828125 43.953125 
Q 50.984375 53.03125 60.84375 53.03125 
Q 68.5625 53.03125 72.703125 48.75 
Q 76.859375 44.484375 76.859375 35.59375 
L 76.859375 0 
L 68.109375 0 
L 68.109375 32.671875 
Q 68.109375 37.9375 67.25 40.25 
Q 66.40625 42.578125 64.15625 43.984375 
Q 61.921875 45.40625 58.890625 45.40625 
Q 53.421875 45.40625 49.796875 41.765625 
Q 46.1875 38.140625 46.1875 30.125 
L 46.1875 0 
L 37.40625 0 
L 37.40625 33.6875 
Q 37.40625 39.546875 35.25 42.46875 
Q 33.109375 45.40625 28.21875 45.40625 
Q 24.515625 45.40625 21.359375 43.453125 
Q 18.21875 41.5 16.796875 37.734375 
Q 15.375 33.984375 15.375 26.90625 
L 15.375 0 
z
" id="ArialMT-109"/>
       <path d="M 6.59375 0 
L 6.59375 51.859375 
L 14.5 51.859375 
L 14.5 44.484375 
Q 20.21875 53.03125 31 53.03125 
Q 35.6875 53.03125 39.625 51.34375 
Q 43.5625 49.65625 45.515625 46.921875 
Q 47.46875 44.1875 48.25 40.4375 
Q 48.734375 37.984375 48.734375 31.890625 
L 48.734375 0 
L 39.9375 0 
L 39.9375 31.546875 
Q 39.9375 36.921875 38.90625 39.578125 
Q 37.890625 42.234375 35.28125 43.8125 
Q 32.671875 45.40625 29.15625 45.40625 
Q 23.53125 45.40625 19.453125 41.84375 
Q 15.375 38.28125 15.375 28.328125 
L 15.375 0 
z
M 12.796875 59.515625 
Q 12.75 64.59375 15.578125 67.625 
Q 18.359375 70.65625 22.703125 70.65625 
Q 25.734375 70.65625 30.953125 68.015625 
Q 33.84375 66.546875 35.546875 66.546875 
Q 37.109375 66.546875 37.9375 67.40625 
Q 38.765625 68.265625 39.109375 70.796875 
L 45.453125 70.796875 
Q 45.3125 65.234375 42.640625 62.453125 
Q 39.984375 59.671875 35.890625 59.671875 
Q 32.8125 59.671875 27.78125 62.40625 
Q 24.515625 64.15625 23 64.15625 
Q 21.34375 64.15625 20.3125 62.984375 
Q 19.234375 61.8125 19.28125 59.515625 
z
" id="ArialMT-241"/>
       <path d="M 3.328125 25.921875 
Q 3.328125 40.328125 11.328125 47.265625 
Q 18.015625 53.03125 27.640625 53.03125 
Q 38.328125 53.03125 45.109375 46.015625 
Q 51.90625 39.015625 51.90625 26.65625 
Q 51.90625 16.65625 48.90625 10.90625 
Q 45.90625 5.171875 40.15625 2 
Q 34.421875 -1.171875 27.640625 -1.171875 
Q 16.75 -1.171875 10.03125 5.8125 
Q 3.328125 12.796875 3.328125 25.921875 
z
M 12.359375 25.921875 
Q 12.359375 15.96875 16.703125 11.015625 
Q 21.046875 6.0625 27.640625 6.0625 
Q 34.1875 6.0625 38.53125 11.03125 
Q 42.875 16.015625 42.875 26.21875 
Q 42.875 35.84375 38.5 40.796875 
Q 34.125 45.75 27.640625 45.75 
Q 21.046875 45.75 16.703125 40.8125 
Q 12.359375 35.890625 12.359375 25.921875 
z
" id="ArialMT-111"/>
       <path id="ArialMT-32"/>
       <path d="M 40.234375 0 
L 40.234375 6.546875 
Q 35.296875 -1.171875 25.734375 -1.171875 
Q 19.53125 -1.171875 14.328125 2.25 
Q 9.125 5.671875 6.265625 11.796875 
Q 3.421875 17.921875 3.421875 25.875 
Q 3.421875 33.640625 6 39.96875 
Q 8.59375 46.296875 13.765625 49.65625 
Q 18.953125 53.03125 25.34375 53.03125 
Q 30.03125 53.03125 33.6875 51.046875 
Q 37.359375 49.078125 39.65625 45.90625 
L 39.65625 71.578125 
L 48.390625 71.578125 
L 48.390625 0 
z
M 12.453125 25.875 
Q 12.453125 15.921875 16.640625 10.984375 
Q 20.84375 6.0625 26.5625 6.0625 
Q 32.328125 6.0625 36.34375 10.765625 
Q 40.375 15.484375 40.375 25.140625 
Q 40.375 35.796875 36.265625 40.765625 
Q 32.171875 45.75 26.171875 45.75 
Q 20.3125 45.75 16.375 40.96875 
Q 12.453125 36.1875 12.453125 25.875 
z
" id="ArialMT-100"/>
       <path d="M 42.09375 16.703125 
L 51.171875 15.578125 
Q 49.03125 7.625 43.21875 3.21875 
Q 37.40625 -1.171875 28.375 -1.171875 
Q 17 -1.171875 10.328125 5.828125 
Q 3.65625 12.84375 3.65625 25.484375 
Q 3.65625 38.578125 10.390625 45.796875 
Q 17.140625 53.03125 27.875 53.03125 
Q 38.28125 53.03125 44.875 45.953125 
Q 51.46875 38.875 51.46875 26.03125 
Q 51.46875 25.25 51.421875 23.6875 
L 12.75 23.6875 
Q 13.234375 15.140625 17.578125 10.59375 
Q 21.921875 6.0625 28.421875 6.0625 
Q 33.25 6.0625 36.671875 8.59375 
Q 40.09375 11.140625 42.09375 16.703125 
z
M 13.234375 30.90625 
L 42.1875 30.90625 
Q 41.609375 37.453125 38.875 40.71875 
Q 34.671875 45.796875 27.984375 45.796875 
Q 21.921875 45.796875 17.796875 41.75 
Q 13.671875 37.703125 13.234375 30.90625 
z
" id="ArialMT-101"/>
       <path d="M 6.390625 0 
L 6.390625 71.578125 
L 15.1875 71.578125 
L 15.1875 0 
z
" id="ArialMT-108"/>
       <path d="M 3.078125 15.484375 
L 11.765625 16.84375 
Q 12.5 11.625 15.84375 8.84375 
Q 19.1875 6.0625 25.203125 6.0625 
Q 31.25 6.0625 34.171875 8.515625 
Q 37.109375 10.984375 37.109375 14.3125 
Q 37.109375 17.28125 34.515625 19 
Q 32.71875 20.171875 25.53125 21.96875 
Q 15.875 24.421875 12.140625 26.203125 
Q 8.40625 27.984375 6.46875 31.125 
Q 4.546875 34.28125 4.546875 38.09375 
Q 4.546875 41.546875 6.125 44.5 
Q 7.71875 47.46875 10.453125 49.421875 
Q 12.5 50.921875 16.03125 51.96875 
Q 19.578125 53.03125 23.640625 53.03125 
Q 29.734375 53.03125 34.34375 51.265625 
Q 38.96875 49.515625 41.15625 46.5 
Q 43.359375 43.5 44.1875 38.484375 
L 35.59375 37.3125 
Q 35.015625 41.3125 32.203125 43.546875 
Q 29.390625 45.796875 24.265625 45.796875 
Q 18.21875 45.796875 15.625 43.796875 
Q 13.03125 41.796875 13.03125 39.109375 
Q 13.03125 37.40625 14.109375 36.03125 
Q 15.1875 34.625 17.484375 33.6875 
Q 18.796875 33.203125 25.25 31.453125 
Q 34.578125 28.953125 38.25 27.359375 
Q 41.9375 25.78125 44.03125 22.75 
Q 46.140625 19.734375 46.140625 15.234375 
Q 46.140625 10.84375 43.578125 6.953125 
Q 41.015625 3.078125 36.171875 0.953125 
Q 31.34375 -1.171875 25.25 -1.171875 
Q 15.140625 -1.171875 9.84375 3.03125 
Q 4.546875 7.234375 3.078125 15.484375 
z
" id="ArialMT-115"/>
       <path d="M 40.578125 0 
L 40.578125 7.625 
Q 34.515625 -1.171875 24.125 -1.171875 
Q 19.53125 -1.171875 15.546875 0.578125 
Q 11.578125 2.34375 9.640625 5 
Q 7.71875 7.671875 6.9375 11.53125 
Q 6.390625 14.109375 6.390625 19.734375 
L 6.390625 51.859375 
L 15.1875 51.859375 
L 15.1875 23.09375 
Q 15.1875 16.21875 15.71875 13.8125 
Q 16.546875 10.359375 19.234375 8.375 
Q 21.921875 6.390625 25.875 6.390625 
Q 29.828125 6.390625 33.296875 8.421875 
Q 36.765625 10.453125 38.203125 13.9375 
Q 39.65625 17.4375 39.65625 24.078125 
L 39.65625 51.859375 
L 48.4375 51.859375 
L 48.4375 0 
z
" id="ArialMT-117"/>
       <path d="M 14.703125 0 
L 6.546875 0 
L 6.546875 71.578125 
L 15.328125 71.578125 
L 15.328125 46.046875 
Q 20.90625 53.03125 29.546875 53.03125 
Q 34.328125 53.03125 38.59375 51.09375 
Q 42.875 49.171875 45.625 45.671875 
Q 48.390625 42.1875 49.953125 37.25 
Q 51.515625 32.328125 51.515625 26.703125 
Q 51.515625 13.375 44.921875 6.09375 
Q 38.328125 -1.171875 29.109375 -1.171875 
Q 19.921875 -1.171875 14.703125 6.5 
z
M 14.59375 26.3125 
Q 14.59375 17 17.140625 12.84375 
Q 21.296875 6.0625 28.375 6.0625 
Q 34.125 6.0625 38.328125 11.0625 
Q 42.53125 16.0625 42.53125 25.984375 
Q 42.53125 36.140625 38.5 40.96875 
Q 34.46875 45.796875 28.765625 45.796875 
Q 23 45.796875 18.796875 40.796875 
Q 14.59375 35.796875 14.59375 26.3125 
z
" id="ArialMT-98"/>
       <path d="M 40.4375 6.390625 
Q 35.546875 2.25 31.03125 0.53125 
Q 26.515625 -1.171875 21.34375 -1.171875 
Q 12.796875 -1.171875 8.203125 3 
Q 3.609375 7.171875 3.609375 13.671875 
Q 3.609375 17.484375 5.34375 20.625 
Q 7.078125 23.78125 9.890625 25.6875 
Q 12.703125 27.59375 16.21875 28.5625 
Q 18.796875 29.25 24.03125 29.890625 
Q 34.671875 31.15625 39.703125 32.90625 
Q 39.75 34.71875 39.75 35.203125 
Q 39.75 40.578125 37.25 42.78125 
Q 33.890625 45.75 27.25 45.75 
Q 21.046875 45.75 18.09375 43.578125 
Q 15.140625 41.40625 13.71875 35.890625 
L 5.125 37.0625 
Q 6.296875 42.578125 8.984375 45.96875 
Q 11.671875 49.359375 16.75 51.1875 
Q 21.828125 53.03125 28.515625 53.03125 
Q 35.15625 53.03125 39.296875 51.46875 
Q 43.453125 49.90625 45.40625 47.53125 
Q 47.359375 45.171875 48.140625 41.546875 
Q 48.578125 39.3125 48.578125 33.453125 
L 48.578125 21.734375 
Q 48.578125 9.46875 49.140625 6.21875 
Q 49.703125 2.984375 51.375 0 
L 42.1875 0 
Q 40.828125 2.734375 40.4375 6.390625 
z
M 39.703125 26.03125 
Q 34.90625 24.078125 25.34375 22.703125 
Q 19.921875 21.921875 17.671875 20.9375 
Q 15.4375 19.96875 14.203125 18.09375 
Q 12.984375 16.21875 12.984375 13.921875 
Q 12.984375 10.40625 15.640625 8.0625 
Q 18.3125 5.71875 23.4375 5.71875 
Q 28.515625 5.71875 32.46875 7.9375 
Q 36.421875 10.15625 38.28125 14.015625 
Q 39.703125 17 39.703125 22.796875 
z
M 22.609375 58.296875 
L 29.109375 71.96875 
L 40.625 71.96875 
L 29.890625 58.296875 
z
" id="ArialMT-225"/>
       <path d="M 6.5 0 
L 6.5 51.859375 
L 14.40625 51.859375 
L 14.40625 44 
Q 17.4375 49.515625 20 51.265625 
Q 22.5625 53.03125 25.640625 53.03125 
Q 30.078125 53.03125 34.671875 50.203125 
L 31.640625 42.046875 
Q 28.421875 43.953125 25.203125 43.953125 
Q 22.3125 43.953125 20.015625 42.21875 
Q 17.71875 40.484375 16.75 37.40625 
Q 15.28125 32.71875 15.28125 27.15625 
L 15.28125 0 
z
" id="ArialMT-114"/>
      </defs>
      <use xlink:href="#ArialMT-84"/>
      <use x="49.958984" xlink:href="#ArialMT-97"/>
      <use x="105.574219" xlink:href="#ArialMT-109"/>
      <use x="188.875" xlink:href="#ArialMT-97"/>
      <use x="244.490234" xlink:href="#ArialMT-241"/>
      <use x="300.105469" xlink:href="#ArialMT-111"/>
      <use x="355.720703" xlink:href="#ArialMT-32"/>
      <use x="383.503906" xlink:href="#ArialMT-100"/>
      <use x="439.119141" xlink:href="#ArialMT-101"/>
      <use x="494.734375" xlink:href="#ArialMT-108"/>
      <use x="516.951172" xlink:href="#ArialMT-32"/>
      <use x="544.734375" xlink:href="#ArialMT-115"/>
      <use x="594.734375" xlink:href="#ArialMT-117"/>
      <use x="650.349609" xlink:href="#ArialMT-98"/>
      <use x="705.964844" xlink:href="#ArialMT-225"/>
      <use x="761.580078" xlink:href="#ArialMT-114"/>
      <use x="794.880859" xlink:href="#ArialMT-98"/>
      <use x="850.496094" xlink:href="#ArialMT-111"/>
      <use x="906.111328" xlink:href="#ArialMT-108"/>
     </g>
    </g>
   </g>
   <g id="matplotlib.axis_2">
    <g id="ytick_1">
     <g id="line2d_7">
      <defs>
       <path d="M 0 0 
L 3.5 0 
" id="mb3abe2cca9" style="stroke:#000000;stroke-width:0.8;"/>
      </defs>
      <g>
       <use style="stroke:#000000;stroke-width:0.8;" x="63" xlink:href="#mb3abe2cca9" y="302.645455"/>
      </g>
     </g>
     <g id="text_8">
      <!-- $\mathdefault{10^{0}}$ -->
      <g transform="translate(41.9 306.444673)scale(0.1 -0.1)">
       <use transform="translate(0 0.765625)" xlink:href="#DejaVuSans-49"/>
       <use transform="translate(63.623047 0.765625)" xlink:href="#DejaVuSans-48"/>
       <use transform="translate(128.203125 39.046875)scale(0.7)" xlink:href="#DejaVuSans-48"/>
      </g>
     </g>
    </g>
    <g id="ytick_2">
     <g id="line2d_8">
      <g>
       <use style="stroke:#000000;stroke-width:0.8;" x="63" xlink:href="#mb3abe2cca9" y="228.516233"/>
      </g>
     </g>
     <g id="text_9">
      <!-- $\mathdefault{10^{1}}$ -->
      <g transform="translate(41.9 232.315452)scale(0.1 -0.1)">
       <use transform="translate(0 0.684375)" xlink:href="#DejaVuSans-49"/>
       <use transform="translate(63.623047 0.684375)" xlink:href="#DejaVuSans-48"/>
       <use transform="translate(128.203125 38.965625)scale(0.7)" xlink:href="#DejaVuSans-49"/>
      </g>
     </g>
    </g>
    <g id="ytick_3">
     <g id="line2d_9">
      <g>
       <use style="stroke:#000000;stroke-width:0.8;" x="63" xlink:href="#mb3abe2cca9" y="154.387011"/>
      </g>
     </g>
     <g id="text_10">
      <!-- $\mathdefault{10^{2}}$ -->
      <g transform="translate(41.9 158.18623)scale(0.1 -0.1)">
       <use transform="translate(0 0.765625)" xlink:href="#DejaVuSans-49"/>
       <use transform="translate(63.623047 0.765625)" xlink:href="#DejaVuSans-48"/>
       <use transform="translate(128.203125 39.046875)scale(0.7)" xlink:href="#DejaVuSans-50"/>
      </g>
     </g>
    </g>
    <g id="ytick_4">
     <g id="line2d_10">
      <g>
       <use style="stroke:#000000;stroke-width:0.8;" x="63" xlink:href="#mb3abe2cca9" y="80.25779"/>
      </g>
     </g>
     <g id="text_11">
      <!-- $\mathdefault{10^{3}}$ -->
      <g transform="translate(41.9 84.057008)scale(0.1 -0.1)">
       <defs>
        <path d="M 40.578125 39.3125 
Q 47.65625 37.796875 51.625 33 
Q 55.609375 28.21875 55.609375 21.1875 
Q 55.609375 10.40625 48.1875 4.484375 
Q 40.765625 -1.421875 27.09375 -1.421875 
Q 22.515625 -1.421875 17.65625 -0.515625 
Q 12.796875 0.390625 7.625 2.203125 
L 7.625 11.71875 
Q 11.71875 9.328125 16.59375 8.109375 
Q 21.484375 6.890625 26.8125 6.890625 
Q 36.078125 6.890625 40.9375 10.546875 
Q 45.796875 14.203125 45.796875 21.1875 
Q 45.796875 27.640625 41.28125 31.265625 
Q 36.765625 34.90625 28.71875 34.90625 
L 20.21875 34.90625 
L 20.21875 43.015625 
L 29.109375 43.015625 
Q 36.375 43.015625 40.234375 45.921875 
Q 44.09375 48.828125 44.09375 54.296875 
Q 44.09375 59.90625 40.109375 62.90625 
Q 36.140625 65.921875 28.71875 65.921875 
Q 24.65625 65.921875 20.015625 65.03125 
Q 15.375 64.15625 9.8125 62.3125 
L 9.8125 71.09375 
Q 15.4375 72.65625 20.34375 73.4375 
Q 25.25 74.21875 29.59375 74.21875 
Q 40.828125 74.21875 47.359375 69.109375 
Q 53.90625 64.015625 53.90625 55.328125 
Q 53.90625 49.265625 50.4375 45.09375 
Q 46.96875 40.921875 40.578125 39.3125 
z
" id="DejaVuSans-51"/>
       </defs>
       <use transform="translate(0 0.765625)" xlink:href="#DejaVuSans-49"/>
       <use transform="translate(63.623047 0.765625)" xlink:href="#DejaVuSans-48"/>
       <use transform="translate(128.203125 39.046875)scale(0.7)" xlink:href="#DejaVuSans-51"/>
      </g>
     </g>
    </g>
    <g id="ytick_5">
     <g id="line2d_11">
      <defs>
       <path d="M 0 0 
L 2 0 
" id="m33e5b1ffde" style="stroke:#000000;stroke-width:0.6;"/>
      </defs>
      <g>
       <use style="stroke:#000000;stroke-width:0.6;" x="63" xlink:href="#m33e5b1ffde" y="314.128216"/>
      </g>
     </g>
    </g>
    <g id="ytick_6">
     <g id="line2d_12">
      <g>
       <use style="stroke:#000000;stroke-width:0.6;" x="63" xlink:href="#m33e5b1ffde" y="309.829318"/>
      </g>
     </g>
    </g>
    <g id="ytick_7">
     <g id="line2d_13">
      <g>
       <use style="stroke:#000000;stroke-width:0.6;" x="63" xlink:href="#m33e5b1ffde" y="306.037422"/>
      </g>
     </g>
    </g>
    <g id="ytick_8">
     <g id="line2d_14">
      <g>
       <use style="stroke:#000000;stroke-width:0.6;" x="63" xlink:href="#m33e5b1ffde" y="280.330335"/>
      </g>
     </g>
    </g>
    <g id="ytick_9">
     <g id="line2d_15">
      <g>
       <use style="stroke:#000000;stroke-width:0.6;" x="63" xlink:href="#m33e5b1ffde" y="267.276827"/>
      </g>
     </g>
    </g>
    <g id="ytick_10">
     <g id="line2d_16">
      <g>
       <use style="stroke:#000000;stroke-width:0.6;" x="63" xlink:href="#m33e5b1ffde" y="258.015216"/>
      </g>
     </g>
    </g>
    <g id="ytick_11">
     <g id="line2d_17">
      <g>
       <use style="stroke:#000000;stroke-width:0.6;" x="63" xlink:href="#m33e5b1ffde" y="250.831352"/>
      </g>
     </g>
    </g>
    <g id="ytick_12">
     <g id="line2d_18">
      <g>
       <use style="stroke:#000000;stroke-width:0.6;" x="63" xlink:href="#m33e5b1ffde" y="244.961708"/>
      </g>
     </g>
    </g>
    <g id="ytick_13">
     <g id="line2d_19">
      <g>
       <use style="stroke:#000000;stroke-width:0.6;" x="63" xlink:href="#m33e5b1ffde" y="239.998995"/>
      </g>
     </g>
    </g>
    <g id="ytick_14">
     <g id="line2d_20">
      <g>
       <use style="stroke:#000000;stroke-width:0.6;" x="63" xlink:href="#m33e5b1ffde" y="235.700097"/>
      </g>
     </g>
    </g>
    <g id="ytick_15">
     <g id="line2d_21">
      <g>
       <use style="stroke:#000000;stroke-width:0.6;" x="63" xlink:href="#m33e5b1ffde" y="231.9082"/>
      </g>
     </g>
    </g>
    <g id="ytick_16">
     <g id="line2d_22">
      <g>
       <use style="stroke:#000000;stroke-width:0.6;" x="63" xlink:href="#m33e5b1ffde" y="206.201114"/>
      </g>
     </g>
    </g>
    <g id="ytick_17">
     <g id="line2d_23">
      <g>
       <use style="stroke:#000000;stroke-width:0.6;" x="63" xlink:href="#m33e5b1ffde" y="193.147606"/>
      </g>
     </g>
    </g>
    <g id="ytick_18">
     <g id="line2d_24">
      <g>
       <use style="stroke:#000000;stroke-width:0.6;" x="63" xlink:href="#m33e5b1ffde" y="183.885994"/>
      </g>
     </g>
    </g>
    <g id="ytick_19">
     <g id="line2d_25">
      <g>
       <use style="stroke:#000000;stroke-width:0.6;" x="63" xlink:href="#m33e5b1ffde" y="176.702131"/>
      </g>
     </g>
    </g>
    <g id="ytick_20">
     <g id="line2d_26">
      <g>
       <use style="stroke:#000000;stroke-width:0.6;" x="63" xlink:href="#m33e5b1ffde" y="170.832486"/>
      </g>
     </g>
    </g>
    <g id="ytick_21">
     <g id="line2d_27">
      <g>
       <use style="stroke:#000000;stroke-width:0.6;" x="63" xlink:href="#m33e5b1ffde" y="165.869773"/>
      </g>
     </g>
    </g>
    <g id="ytick_22">
     <g id="line2d_28">
      <g>
       <use style="stroke:#000000;stroke-width:0.6;" x="63" xlink:href="#m33e5b1ffde" y="161.570875"/>
      </g>
     </g>
    </g>
    <g id="ytick_23">
     <g id="line2d_29">
      <g>
       <use style="stroke:#000000;stroke-width:0.6;" x="63" xlink:href="#m33e5b1ffde" y="157.778978"/>
      </g>
     </g>
    </g>
    <g id="ytick_24">
     <g id="line2d_30">
      <g>
       <use style="stroke:#000000;stroke-width:0.6;" x="63" xlink:href="#m33e5b1ffde" y="132.071892"/>
      </g>
     </g>
    </g>
    <g id="ytick_25">
     <g id="line2d_31">
      <g>
       <use style="stroke:#000000;stroke-width:0.6;" x="63" xlink:href="#m33e5b1ffde" y="119.018384"/>
      </g>
     </g>
    </g>
    <g id="ytick_26">
     <g id="line2d_32">
      <g>
       <use style="stroke:#000000;stroke-width:0.6;" x="63" xlink:href="#m33e5b1ffde" y="109.756773"/>
      </g>
     </g>
    </g>
    <g id="ytick_27">
     <g id="line2d_33">
      <g>
       <use style="stroke:#000000;stroke-width:0.6;" x="63" xlink:href="#m33e5b1ffde" y="102.572909"/>
      </g>
     </g>
    </g>
    <g id="ytick_28">
     <g id="line2d_34">
      <g>
       <use style="stroke:#000000;stroke-width:0.6;" x="63" xlink:href="#m33e5b1ffde" y="96.703265"/>
      </g>
     </g>
    </g>
    <g id="ytick_29">
     <g id="line2d_35">
      <g>
       <use style="stroke:#000000;stroke-width:0.6;" x="63" xlink:href="#m33e5b1ffde" y="91.740551"/>
      </g>
     </g>
    </g>
    <g id="ytick_30">
     <g id="line2d_36">
      <g>
       <use style="stroke:#000000;stroke-width:0.6;" x="63" xlink:href="#m33e5b1ffde" y="87.441654"/>
      </g>
     </g>
    </g>
    <g id="ytick_31">
     <g id="line2d_37">
      <g>
       <use style="stroke:#000000;stroke-width:0.6;" x="63" xlink:href="#m33e5b1ffde" y="83.649757"/>
      </g>
     </g>
    </g>
    <g id="ytick_32">
     <g id="line2d_38">
      <g>
       <use style="stroke:#000000;stroke-width:0.6;" x="63" xlink:href="#m33e5b1ffde" y="57.94267"/>
      </g>
     </g>
    </g>
    <g id="ytick_33">
     <g id="line2d_39">
      <g>
       <use style="stroke:#000000;stroke-width:0.6;" x="63" xlink:href="#m33e5b1ffde" y="44.889162"/>
      </g>
     </g>
    </g>
    <g id="text_12">
     <!-- Número de subárboles -->
     <g transform="translate(34.91875 254.969531)rotate(-90)scale(0.15 -0.15)">
      <defs>
       <path d="M 7.625 0 
L 7.625 71.578125 
L 17.328125 71.578125 
L 54.9375 15.375 
L 54.9375 71.578125 
L 64.015625 71.578125 
L 64.015625 0 
L 54.296875 0 
L 16.703125 56.25 
L 16.703125 0 
z
" id="ArialMT-78"/>
       <path d="M 40.578125 0 
L 40.578125 7.625 
Q 34.515625 -1.171875 24.125 -1.171875 
Q 19.53125 -1.171875 15.546875 0.578125 
Q 11.578125 2.34375 9.640625 5 
Q 7.71875 7.671875 6.9375 11.53125 
Q 6.390625 14.109375 6.390625 19.734375 
L 6.390625 51.859375 
L 15.1875 51.859375 
L 15.1875 23.09375 
Q 15.1875 16.21875 15.71875 13.8125 
Q 16.546875 10.359375 19.234375 8.375 
Q 21.921875 6.390625 25.875 6.390625 
Q 29.828125 6.390625 33.296875 8.421875 
Q 36.765625 10.453125 38.203125 13.9375 
Q 39.65625 17.4375 39.65625 24.078125 
L 39.65625 51.859375 
L 48.4375 51.859375 
L 48.4375 0 
z
M 22.125 58.296875 
L 28.609375 71.96875 
L 40.140625 71.96875 
L 29.390625 58.296875 
z
" id="ArialMT-250"/>
      </defs>
      <use xlink:href="#ArialMT-78"/>
      <use x="72.216797" xlink:href="#ArialMT-250"/>
      <use x="127.832031" xlink:href="#ArialMT-109"/>
      <use x="211.132812" xlink:href="#ArialMT-101"/>
      <use x="266.748047" xlink:href="#ArialMT-114"/>
      <use x="300.048828" xlink:href="#ArialMT-111"/>
      <use x="355.664062" xlink:href="#ArialMT-32"/>
      <use x="383.447266" xlink:href="#ArialMT-100"/>
      <use x="439.0625" xlink:href="#ArialMT-101"/>
      <use x="494.677734" xlink:href="#ArialMT-32"/>
      <use x="522.460938" xlink:href="#ArialMT-115"/>
      <use x="572.460938" xlink:href="#ArialMT-117"/>
      <use x="628.076172" xlink:href="#ArialMT-98"/>
      <use x="683.691406" xlink:href="#ArialMT-225"/>
      <use x="739.306641" xlink:href="#ArialMT-114"/>
      <use x="772.607422" xlink:href="#ArialMT-98"/>
      <use x="828.222656" xlink:href="#ArialMT-111"/>
      <use x="883.837891" xlink:href="#ArialMT-108"/>
      <use x="906.054688" xlink:href="#ArialMT-101"/>
      <use x="961.669922" xlink:href="#ArialMT-115"/>
     </g>
    </g>
   </g>
   <g id="patch_53">
    <path d="M 63 315 
L 63 43.2 
" style="fill:none;stroke:#bcbcbc;stroke-linecap:square;stroke-linejoin:miter;stroke-width:0.8;"/>
   </g>
   <g id="patch_54">
    <path d="M 453.6 315 
L 453.6 43.2 
" style="fill:none;stroke:#bcbcbc;stroke-linecap:square;stroke-linejoin:miter;stroke-width:0.8;"/>
   </g>
   <g id="patch_55">
    <path d="M 63 315 
L 453.6 315 
" style="fill:none;stroke:#bcbcbc;stroke-linecap:square;stroke-linejoin:miter;stroke-width:0.8;"/>
   </g>
   <g id="patch_56">
    <path d="M 63 43.2 
L 453.6 43.2 
" style="fill:none;stroke:#bcbcbc;stroke-linecap:square;stroke-linejoin:miter;stroke-width:0.8;"/>
   </g>
  </g>
 </g>
 <defs>
  <clipPath id="p2aa60adc5f">
   <rect height="271.8" width="390.6" x="63" y="43.2"/>
  </clipPath>
 </defs>
</svg>
