<?xml version="1.0" encoding="utf-8" standalone="no"?>
<!DOCTYPE svg PUBLIC "-//W3C//DTD SVG 1.1//EN"
  "http://www.w3.org/Graphics/SVG/1.1/DTD/svg11.dtd">
<!-- Created with matplotlib (https://matplotlib.org/) -->
<svg height="360pt" version="1.1" viewBox="0 0 504 360" width="504pt" xmlns="http://www.w3.org/2000/svg" xmlns:xlink="http://www.w3.org/1999/xlink">
 <metadata>
  <rdf:RDF xmlns:cc="http://creativecommons.org/ns#" xmlns:dc="http://purl.org/dc/elements/1.1/" xmlns:rdf="http://www.w3.org/1999/02/22-rdf-syntax-ns#">
   <cc:Work>
    <dc:type rdf:resource="http://purl.org/dc/dcmitype/StillImage"/>
    <dc:date>2023-01-25T12:44:34.435776</dc:date>
    <dc:format>image/svg+xml</dc:format>
    <dc:creator>
     <cc:Agent>
      <dc:title>Matplotlib v3.3.4, https://matplotlib.org/</dc:title>
     </cc:Agent>
    </dc:creator>
   </cc:Work>
  </rdf:RDF>
 </metadata>
 <defs>
  <style type="text/css">*{stroke-linecap:butt;stroke-linejoin:round;}</style>
 </defs>
 <g id="figure_1">
  <g id="patch_1">
   <path d="M 0 360 
L 504 360 
L 504 0 
L 0 0 
z
" style="fill:#ffffff;"/>
  </g>
  <g id="axes_1">
   <g id="patch_2">
    <path d="M 63 315 
L 453.6 315 
L 453.6 43.2 
L 63 43.2 
z
" style="fill:#eeeeee;"/>
   </g>
   <g id="patch_3">
    <path clip-path="url(#pcae2c24a30)" d="M 80.754545 315 
L 86.458817 315 
L 86.458817 170.099198 
L 80.754545 170.099198 
z
" style="fill:#669bbc;"/>
   </g>
   <g id="patch_4">
    <path clip-path="url(#pcae2c24a30)" d="M 87.884885 315 
L 93.589157 315 
L 93.589157 164.179388 
L 87.884885 164.179388 
z
" style="fill:#669bbc;"/>
   </g>
   <g id="patch_5">
    <path clip-path="url(#pcae2c24a30)" d="M 95.015225 315 
L 100.719496 315 
L 100.719496 159.134096 
L 95.015225 159.134096 
z
" style="fill:#669bbc;"/>
   </g>
   <g id="patch_6">
    <path clip-path="url(#pcae2c24a30)" d="M 102.145564 315 
L 107.849836 315 
L 107.849836 152.810662 
L 102.145564 152.810662 
z
" style="fill:#669bbc;"/>
   </g>
   <g id="patch_7">
    <path clip-path="url(#pcae2c24a30)" d="M 109.275904 315 
L 114.980175 315 
L 114.980175 147.563558 
L 109.275904 147.563558 
z
" style="fill:#669bbc;"/>
   </g>
   <g id="patch_8">
    <path clip-path="url(#pcae2c24a30)" d="M 116.406243 315 
L 122.110515 315 
L 122.110515 141.105584 
L 116.406243 141.105584 
z
" style="fill:#669bbc;"/>
   </g>
   <g id="patch_9">
    <path clip-path="url(#pcae2c24a30)" d="M 123.536583 315 
L 129.240854 315 
L 129.240854 132.764033 
L 123.536583 132.764033 
z
" style="fill:#669bbc;"/>
   </g>
   <g id="patch_10">
    <path clip-path="url(#pcae2c24a30)" d="M 130.666922 315 
L 136.371194 315 
L 136.371194 125.835165 
L 130.666922 125.835165 
z
" style="fill:#669bbc;"/>
   </g>
   <g id="patch_11">
    <path clip-path="url(#pcae2c24a30)" d="M 137.797262 315 
L 143.501533 315 
L 143.501533 117.628156 
L 137.797262 117.628156 
z
" style="fill:#669bbc;"/>
   </g>
   <g id="patch_12">
    <path clip-path="url(#pcae2c24a30)" d="M 144.927601 315 
L 150.631873 315 
L 150.631873 109.286605 
L 144.927601 109.286605 
z
" style="fill:#669bbc;"/>
   </g>
   <g id="patch_13">
    <path clip-path="url(#pcae2c24a30)" d="M 152.057941 315 
L 157.762212 315 
L 157.762212 103.030443 
L 152.057941 103.030443 
z
" style="fill:#669bbc;"/>
   </g>
   <g id="patch_14">
    <path clip-path="url(#pcae2c24a30)" d="M 159.18828 315 
L 164.892552 315 
L 164.892552 97.514256 
L 159.18828 97.514256 
z
" style="fill:#669bbc;"/>
   </g>
   <g id="patch_15">
    <path clip-path="url(#pcae2c24a30)" d="M 166.31862 315 
L 172.022892 315 
L 172.022892 90.518117 
L 166.31862 90.518117 
z
" style="fill:#669bbc;"/>
   </g>
   <g id="patch_16">
    <path clip-path="url(#pcae2c24a30)" d="M 173.448959 315 
L 179.153231 315 
L 179.153231 85.809177 
L 173.448959 85.809177 
z
" style="fill:#669bbc;"/>
   </g>
   <g id="patch_17">
    <path clip-path="url(#pcae2c24a30)" d="M 180.579299 315 
L 186.283571 315 
L 186.283571 81.571132 
L 180.579299 81.571132 
z
" style="fill:#669bbc;"/>
   </g>
   <g id="patch_18">
    <path clip-path="url(#pcae2c24a30)" d="M 187.709639 315 
L 193.41391 315 
L 193.41391 77.80398 
L 187.709639 77.80398 
z
" style="fill:#669bbc;"/>
   </g>
   <g id="patch_19">
    <path clip-path="url(#pcae2c24a30)" d="M 194.839978 315 
L 200.54425 315 
L 200.54425 74.709534 
L 194.839978 74.709534 
z
" style="fill:#669bbc;"/>
   </g>
   <g id="patch_20">
    <path clip-path="url(#pcae2c24a30)" d="M 201.970318 315 
L 207.674589 315 
L 207.674589 71.547817 
L 201.970318 71.547817 
z
" style="fill:#669bbc;"/>
   </g>
   <g id="patch_21">
    <path clip-path="url(#pcae2c24a30)" d="M 209.100657 315 
L 214.804929 315 
L 214.804929 68.453371 
L 209.100657 68.453371 
z
" style="fill:#669bbc;"/>
   </g>
   <g id="patch_22">
    <path clip-path="url(#pcae2c24a30)" d="M 216.230997 315 
L 221.935268 315 
L 221.935268 66.367983 
L 216.230997 66.367983 
z
" style="fill:#669bbc;"/>
   </g>
   <g id="patch_23">
    <path clip-path="url(#pcae2c24a30)" d="M 223.361336 315 
L 229.065608 315 
L 229.065608 64.955301 
L 223.361336 64.955301 
z
" style="fill:#669bbc;"/>
   </g>
   <g id="patch_24">
    <path clip-path="url(#pcae2c24a30)" d="M 230.491676 315 
L 236.195947 315 
L 236.195947 63.138996 
L 230.491676 63.138996 
z
" style="fill:#669bbc;"/>
   </g>
   <g id="patch_25">
    <path clip-path="url(#pcae2c24a30)" d="M 237.622015 315 
L 243.326287 315 
L 243.326287 61.793585 
L 237.622015 61.793585 
z
" style="fill:#669bbc;"/>
   </g>
   <g id="patch_26">
    <path clip-path="url(#pcae2c24a30)" d="M 244.752355 315 
L 250.456627 315 
L 250.456627 60.649985 
L 244.752355 60.649985 
z
" style="fill:#669bbc;"/>
   </g>
   <g id="patch_27">
    <path clip-path="url(#pcae2c24a30)" d="M 251.882694 315 
L 257.586966 315 
L 257.586966 60.04455 
L 251.882694 60.04455 
z
" style="fill:#669bbc;"/>
   </g>
   <g id="patch_28">
    <path clip-path="url(#pcae2c24a30)" d="M 259.013034 315 
L 264.717306 315 
L 264.717306 58.968221 
L 259.013034 58.968221 
z
" style="fill:#669bbc;"/>
   </g>
   <g id="patch_29">
    <path clip-path="url(#pcae2c24a30)" d="M 266.143373 315 
L 271.847645 315 
L 271.847645 58.564598 
L 266.143373 58.564598 
z
" style="fill:#669bbc;"/>
   </g>
   <g id="patch_30">
    <path clip-path="url(#pcae2c24a30)" d="M 273.273713 315 
L 278.977985 315 
L 278.977985 58.228245 
L 273.273713 58.228245 
z
" style="fill:#669bbc;"/>
   </g>
   <g id="patch_31">
    <path clip-path="url(#pcae2c24a30)" d="M 280.404053 315 
L 286.108324 315 
L 286.108324 57.959162 
L 280.404053 57.959162 
z
" style="fill:#669bbc;"/>
   </g>
   <g id="patch_32">
    <path clip-path="url(#pcae2c24a30)" d="M 287.534392 315 
L 293.238664 315 
L 293.238664 57.555539 
L 287.534392 57.555539 
z
" style="fill:#669bbc;"/>
   </g>
   <g id="patch_33">
    <path clip-path="url(#pcae2c24a30)" d="M 294.664732 315 
L 300.369003 315 
L 300.369003 57.219186 
L 294.664732 57.219186 
z
" style="fill:#669bbc;"/>
   </g>
   <g id="patch_34">
    <path clip-path="url(#pcae2c24a30)" d="M 301.795071 315 
L 307.499343 315 
L 307.499343 56.815563 
L 301.795071 56.815563 
z
" style="fill:#669bbc;"/>
   </g>
   <g id="patch_35">
    <path clip-path="url(#pcae2c24a30)" d="M 308.925411 315 
L 314.629682 315 
L 314.629682 56.613751 
L 308.925411 56.613751 
z
" style="fill:#669bbc;"/>
   </g>
   <g id="patch_36">
    <path clip-path="url(#pcae2c24a30)" d="M 316.05575 315 
L 321.760022 315 
L 321.760022 56.613751 
L 316.05575 56.613751 
z
" style="fill:#669bbc;"/>
   </g>
   <g id="patch_37">
    <path clip-path="url(#pcae2c24a30)" d="M 323.18609 315 
L 328.890361 315 
L 328.890361 56.613751 
L 323.18609 56.613751 
z
" style="fill:#669bbc;"/>
   </g>
   <g id="patch_38">
    <path clip-path="url(#pcae2c24a30)" d="M 330.316429 315 
L 336.020701 315 
L 336.020701 56.411939 
L 330.316429 56.411939 
z
" style="fill:#669bbc;"/>
   </g>
   <g id="patch_39">
    <path clip-path="url(#pcae2c24a30)" d="M 337.446769 315 
L 343.151041 315 
L 343.151041 56.344669 
L 337.446769 56.344669 
z
" style="fill:#669bbc;"/>
   </g>
   <g id="patch_40">
    <path clip-path="url(#pcae2c24a30)" d="M 344.577108 315 
L 350.28138 315 
L 350.28138 56.344669 
L 344.577108 56.344669 
z
" style="fill:#669bbc;"/>
   </g>
   <g id="patch_41">
    <path clip-path="url(#pcae2c24a30)" d="M 351.707448 315 
L 357.41172 315 
L 357.41172 56.344669 
L 351.707448 56.344669 
z
" style="fill:#669bbc;"/>
   </g>
   <g id="patch_42">
    <path clip-path="url(#pcae2c24a30)" d="M 358.837788 315 
L 364.542059 315 
L 364.542059 56.344669 
L 358.837788 56.344669 
z
" style="fill:#669bbc;"/>
   </g>
   <g id="patch_43">
    <path clip-path="url(#pcae2c24a30)" d="M 365.968127 315 
L 371.672399 315 
L 371.672399 56.277398 
L 365.968127 56.277398 
z
" style="fill:#669bbc;"/>
   </g>
   <g id="patch_44">
    <path clip-path="url(#pcae2c24a30)" d="M 373.098467 315 
L 378.802738 315 
L 378.802738 56.277398 
L 373.098467 56.277398 
z
" style="fill:#669bbc;"/>
   </g>
   <g id="patch_45">
    <path clip-path="url(#pcae2c24a30)" d="M 380.228806 315 
L 385.933078 315 
L 385.933078 56.277398 
L 380.228806 56.277398 
z
" style="fill:#669bbc;"/>
   </g>
   <g id="patch_46">
    <path clip-path="url(#pcae2c24a30)" d="M 387.359146 315 
L 393.063417 315 
L 393.063417 56.277398 
L 387.359146 56.277398 
z
" style="fill:#669bbc;"/>
   </g>
   <g id="patch_47">
    <path clip-path="url(#pcae2c24a30)" d="M 394.489485 315 
L 400.193757 315 
L 400.193757 56.210128 
L 394.489485 56.210128 
z
" style="fill:#669bbc;"/>
   </g>
   <g id="patch_48">
    <path clip-path="url(#pcae2c24a30)" d="M 401.619825 315 
L 407.324096 315 
L 407.324096 56.210128 
L 401.619825 56.210128 
z
" style="fill:#669bbc;"/>
   </g>
   <g id="patch_49">
    <path clip-path="url(#pcae2c24a30)" d="M 408.750164 315 
L 414.454436 315 
L 414.454436 56.210128 
L 408.750164 56.210128 
z
" style="fill:#669bbc;"/>
   </g>
   <g id="patch_50">
    <path clip-path="url(#pcae2c24a30)" d="M 415.880504 315 
L 421.584775 315 
L 421.584775 56.210128 
L 415.880504 56.210128 
z
" style="fill:#669bbc;"/>
   </g>
   <g id="patch_51">
    <path clip-path="url(#pcae2c24a30)" d="M 423.010843 315 
L 428.715115 315 
L 428.715115 56.210128 
L 423.010843 56.210128 
z
" style="fill:#669bbc;"/>
   </g>
   <g id="patch_52">
    <path clip-path="url(#pcae2c24a30)" d="M 430.141183 315 
L 435.845455 315 
L 435.845455 56.142857 
L 430.141183 56.142857 
z
" style="fill:#669bbc;"/>
   </g>
   <g id="matplotlib.axis_1">
    <g id="xtick_1">
     <g id="line2d_1">
      <defs>
       <path d="M 0 0 
L 0 -3.5 
" id="m9bff5b4bef" style="stroke:#000000;stroke-width:0.8;"/>
      </defs>
      <g>
       <use style="stroke:#000000;stroke-width:0.8;" x="80.041512" xlink:href="#m9bff5b4bef" y="315"/>
      </g>
     </g>
     <g id="text_1">
      <!-- 0 -->
      <g transform="translate(76.860262 326.098437)scale(0.1 -0.1)">
       <defs>
        <path d="M 31.78125 66.40625 
Q 24.171875 66.40625 20.328125 58.90625 
Q 16.5 51.421875 16.5 36.375 
Q 16.5 21.390625 20.328125 13.890625 
Q 24.171875 6.390625 31.78125 6.390625 
Q 39.453125 6.390625 43.28125 13.890625 
Q 47.125 21.390625 47.125 36.375 
Q 47.125 51.421875 43.28125 58.90625 
Q 39.453125 66.40625 31.78125 66.40625 
z
M 31.78125 74.21875 
Q 44.046875 74.21875 50.515625 64.515625 
Q 56.984375 54.828125 56.984375 36.375 
Q 56.984375 17.96875 50.515625 8.265625 
Q 44.046875 -1.421875 31.78125 -1.421875 
Q 19.53125 -1.421875 13.0625 8.265625 
Q 6.59375 17.96875 6.59375 36.375 
Q 6.59375 54.828125 13.0625 64.515625 
Q 19.53125 74.21875 31.78125 74.21875 
z
" id="DejaVuSans-48"/>
       </defs>
       <use xlink:href="#DejaVuSans-48"/>
      </g>
     </g>
    </g>
    <g id="xtick_2">
     <g id="line2d_2">
      <g>
       <use style="stroke:#000000;stroke-width:0.8;" x="144.394756" xlink:href="#m9bff5b4bef" y="315"/>
      </g>
     </g>
     <g id="text_2">
      <!-- 200 -->
      <g transform="translate(134.851006 326.098437)scale(0.1 -0.1)">
       <defs>
        <path d="M 19.1875 8.296875 
L 53.609375 8.296875 
L 53.609375 0 
L 7.328125 0 
L 7.328125 8.296875 
Q 12.9375 14.109375 22.625 23.890625 
Q 32.328125 33.6875 34.8125 36.53125 
Q 39.546875 41.84375 41.421875 45.53125 
Q 43.3125 49.21875 43.3125 52.78125 
Q 43.3125 58.59375 39.234375 62.25 
Q 35.15625 65.921875 28.609375 65.921875 
Q 23.96875 65.921875 18.8125 64.3125 
Q 13.671875 62.703125 7.8125 59.421875 
L 7.8125 69.390625 
Q 13.765625 71.78125 18.9375 73 
Q 24.125 74.21875 28.421875 74.21875 
Q 39.75 74.21875 46.484375 68.546875 
Q 53.21875 62.890625 53.21875 53.421875 
Q 53.21875 48.921875 51.53125 44.890625 
Q 49.859375 40.875 45.40625 35.40625 
Q 44.1875 33.984375 37.640625 27.21875 
Q 31.109375 20.453125 19.1875 8.296875 
z
" id="DejaVuSans-50"/>
       </defs>
       <use xlink:href="#DejaVuSans-50"/>
       <use x="63.623047" xlink:href="#DejaVuSans-48"/>
       <use x="127.246094" xlink:href="#DejaVuSans-48"/>
      </g>
     </g>
    </g>
    <g id="xtick_3">
     <g id="line2d_3">
      <g>
       <use style="stroke:#000000;stroke-width:0.8;" x="208.748001" xlink:href="#m9bff5b4bef" y="315"/>
      </g>
     </g>
     <g id="text_3">
      <!-- 400 -->
      <g transform="translate(199.204251 326.098437)scale(0.1 -0.1)">
       <defs>
        <path d="M 37.796875 64.3125 
L 12.890625 25.390625 
L 37.796875 25.390625 
z
M 35.203125 72.90625 
L 47.609375 72.90625 
L 47.609375 25.390625 
L 58.015625 25.390625 
L 58.015625 17.1875 
L 47.609375 17.1875 
L 47.609375 0 
L 37.796875 0 
L 37.796875 17.1875 
L 4.890625 17.1875 
L 4.890625 26.703125 
z
" id="DejaVuSans-52"/>
       </defs>
       <use xlink:href="#DejaVuSans-52"/>
       <use x="63.623047" xlink:href="#DejaVuSans-48"/>
       <use x="127.246094" xlink:href="#DejaVuSans-48"/>
      </g>
     </g>
    </g>
    <g id="xtick_4">
     <g id="line2d_4">
      <g>
       <use style="stroke:#000000;stroke-width:0.8;" x="273.101246" xlink:href="#m9bff5b4bef" y="315"/>
      </g>
     </g>
     <g id="text_4">
      <!-- 600 -->
      <g transform="translate(263.557496 326.098437)scale(0.1 -0.1)">
       <defs>
        <path d="M 33.015625 40.375 
Q 26.375 40.375 22.484375 35.828125 
Q 18.609375 31.296875 18.609375 23.390625 
Q 18.609375 15.53125 22.484375 10.953125 
Q 26.375 6.390625 33.015625 6.390625 
Q 39.65625 6.390625 43.53125 10.953125 
Q 47.40625 15.53125 47.40625 23.390625 
Q 47.40625 31.296875 43.53125 35.828125 
Q 39.65625 40.375 33.015625 40.375 
z
M 52.59375 71.296875 
L 52.59375 62.3125 
Q 48.875 64.0625 45.09375 64.984375 
Q 41.3125 65.921875 37.59375 65.921875 
Q 27.828125 65.921875 22.671875 59.328125 
Q 17.53125 52.734375 16.796875 39.40625 
Q 19.671875 43.65625 24.015625 45.921875 
Q 28.375 48.1875 33.59375 48.1875 
Q 44.578125 48.1875 50.953125 41.515625 
Q 57.328125 34.859375 57.328125 23.390625 
Q 57.328125 12.15625 50.6875 5.359375 
Q 44.046875 -1.421875 33.015625 -1.421875 
Q 20.359375 -1.421875 13.671875 8.265625 
Q 6.984375 17.96875 6.984375 36.375 
Q 6.984375 53.65625 15.1875 63.9375 
Q 23.390625 74.21875 37.203125 74.21875 
Q 40.921875 74.21875 44.703125 73.484375 
Q 48.484375 72.75 52.59375 71.296875 
z
" id="DejaVuSans-54"/>
       </defs>
       <use xlink:href="#DejaVuSans-54"/>
       <use x="63.623047" xlink:href="#DejaVuSans-48"/>
       <use x="127.246094" xlink:href="#DejaVuSans-48"/>
      </g>
     </g>
    </g>
    <g id="xtick_5">
     <g id="line2d_5">
      <g>
       <use style="stroke:#000000;stroke-width:0.8;" x="337.454491" xlink:href="#m9bff5b4bef" y="315"/>
      </g>
     </g>
     <g id="text_5">
      <!-- 800 -->
      <g transform="translate(327.910741 326.098437)scale(0.1 -0.1)">
       <defs>
        <path d="M 31.78125 34.625 
Q 24.75 34.625 20.71875 30.859375 
Q 16.703125 27.09375 16.703125 20.515625 
Q 16.703125 13.921875 20.71875 10.15625 
Q 24.75 6.390625 31.78125 6.390625 
Q 38.8125 6.390625 42.859375 10.171875 
Q 46.921875 13.96875 46.921875 20.515625 
Q 46.921875 27.09375 42.890625 30.859375 
Q 38.875 34.625 31.78125 34.625 
z
M 21.921875 38.8125 
Q 15.578125 40.375 12.03125 44.71875 
Q 8.5 49.078125 8.5 55.328125 
Q 8.5 64.0625 14.71875 69.140625 
Q 20.953125 74.21875 31.78125 74.21875 
Q 42.671875 74.21875 48.875 69.140625 
Q 55.078125 64.0625 55.078125 55.328125 
Q 55.078125 49.078125 51.53125 44.71875 
Q 48 40.375 41.703125 38.8125 
Q 48.828125 37.15625 52.796875 32.3125 
Q 56.78125 27.484375 56.78125 20.515625 
Q 56.78125 9.90625 50.3125 4.234375 
Q 43.84375 -1.421875 31.78125 -1.421875 
Q 19.734375 -1.421875 13.25 4.234375 
Q 6.78125 9.90625 6.78125 20.515625 
Q 6.78125 27.484375 10.78125 32.3125 
Q 14.796875 37.15625 21.921875 38.8125 
z
M 18.3125 54.390625 
Q 18.3125 48.734375 21.84375 45.5625 
Q 25.390625 42.390625 31.78125 42.390625 
Q 38.140625 42.390625 41.71875 45.5625 
Q 45.3125 48.734375 45.3125 54.390625 
Q 45.3125 60.0625 41.71875 63.234375 
Q 38.140625 66.40625 31.78125 66.40625 
Q 25.390625 66.40625 21.84375 63.234375 
Q 18.3125 60.0625 18.3125 54.390625 
z
" id="DejaVuSans-56"/>
       </defs>
       <use xlink:href="#DejaVuSans-56"/>
       <use x="63.623047" xlink:href="#DejaVuSans-48"/>
       <use x="127.246094" xlink:href="#DejaVuSans-48"/>
      </g>
     </g>
    </g>
    <g id="xtick_6">
     <g id="line2d_6">
      <g>
       <use style="stroke:#000000;stroke-width:0.8;" x="401.807736" xlink:href="#m9bff5b4bef" y="315"/>
      </g>
     </g>
     <g id="text_6">
      <!-- 1000 -->
      <g transform="translate(389.082736 326.098437)scale(0.1 -0.1)">
       <defs>
        <path d="M 12.40625 8.296875 
L 28.515625 8.296875 
L 28.515625 63.921875 
L 10.984375 60.40625 
L 10.984375 69.390625 
L 28.421875 72.90625 
L 38.28125 72.90625 
L 38.28125 8.296875 
L 54.390625 8.296875 
L 54.390625 0 
L 12.40625 0 
z
" id="DejaVuSans-49"/>
       </defs>
       <use xlink:href="#DejaVuSans-49"/>
       <use x="63.623047" xlink:href="#DejaVuSans-48"/>
       <use x="127.246094" xlink:href="#DejaVuSans-48"/>
       <use x="190.869141" xlink:href="#DejaVuSans-48"/>
      </g>
     </g>
    </g>
    <g id="text_7">
     <!-- Tamaño de subarboles -->
     <g transform="translate(182.426953 342.914844)scale(0.15 -0.15)">
      <defs>
       <path d="M 25.921875 0 
L 25.921875 63.140625 
L 2.34375 63.140625 
L 2.34375 71.578125 
L 59.078125 71.578125 
L 59.078125 63.140625 
L 35.40625 63.140625 
L 35.40625 0 
z
" id="ArialMT-84"/>
       <path d="M 40.4375 6.390625 
Q 35.546875 2.25 31.03125 0.53125 
Q 26.515625 -1.171875 21.34375 -1.171875 
Q 12.796875 -1.171875 8.203125 3 
Q 3.609375 7.171875 3.609375 13.671875 
Q 3.609375 17.484375 5.34375 20.625 
Q 7.078125 23.78125 9.890625 25.6875 
Q 12.703125 27.59375 16.21875 28.5625 
Q 18.796875 29.25 24.03125 29.890625 
Q 34.671875 31.15625 39.703125 32.90625 
Q 39.75 34.71875 39.75 35.203125 
Q 39.75 40.578125 37.25 42.78125 
Q 33.890625 45.75 27.25 45.75 
Q 21.046875 45.75 18.09375 43.578125 
Q 15.140625 41.40625 13.71875 35.890625 
L 5.125 37.0625 
Q 6.296875 42.578125 8.984375 45.96875 
Q 11.671875 49.359375 16.75 51.1875 
Q 21.828125 53.03125 28.515625 53.03125 
Q 35.15625 53.03125 39.296875 51.46875 
Q 43.453125 49.90625 45.40625 47.53125 
Q 47.359375 45.171875 48.140625 41.546875 
Q 48.578125 39.3125 48.578125 33.453125 
L 48.578125 21.734375 
Q 48.578125 9.46875 49.140625 6.21875 
Q 49.703125 2.984375 51.375 0 
L 42.1875 0 
Q 40.828125 2.734375 40.4375 6.390625 
z
M 39.703125 26.03125 
Q 34.90625 24.078125 25.34375 22.703125 
Q 19.921875 21.921875 17.671875 20.9375 
Q 15.4375 19.96875 14.203125 18.09375 
Q 12.984375 16.21875 12.984375 13.921875 
Q 12.984375 10.40625 15.640625 8.0625 
Q 18.3125 5.71875 23.4375 5.71875 
Q 28.515625 5.71875 32.46875 7.9375 
Q 36.421875 10.15625 38.28125 14.015625 
Q 39.703125 17 39.703125 22.796875 
z
" id="ArialMT-97"/>
       <path d="M 6.59375 0 
L 6.59375 51.859375 
L 14.453125 51.859375 
L 14.453125 44.578125 
Q 16.890625 48.390625 20.9375 50.703125 
Q 25 53.03125 30.171875 53.03125 
Q 35.9375 53.03125 39.625 50.640625 
Q 43.3125 48.25 44.828125 43.953125 
Q 50.984375 53.03125 60.84375 53.03125 
Q 68.5625 53.03125 72.703125 48.75 
Q 76.859375 44.484375 76.859375 35.59375 
L 76.859375 0 
L 68.109375 0 
L 68.109375 32.671875 
Q 68.109375 37.9375 67.25 40.25 
Q 66.40625 42.578125 64.15625 43.984375 
Q 61.921875 45.40625 58.890625 45.40625 
Q 53.421875 45.40625 49.796875 41.765625 
Q 46.1875 38.140625 46.1875 30.125 
L 46.1875 0 
L 37.40625 0 
L 37.40625 33.6875 
Q 37.40625 39.546875 35.25 42.46875 
Q 33.109375 45.40625 28.21875 45.40625 
Q 24.515625 45.40625 21.359375 43.453125 
Q 18.21875 41.5 16.796875 37.734375 
Q 15.375 33.984375 15.375 26.90625 
L 15.375 0 
z
" id="ArialMT-109"/>
       <path d="M 6.59375 0 
L 6.59375 51.859375 
L 14.5 51.859375 
L 14.5 44.484375 
Q 20.21875 53.03125 31 53.03125 
Q 35.6875 53.03125 39.625 51.34375 
Q 43.5625 49.65625 45.515625 46.921875 
Q 47.46875 44.1875 48.25 40.4375 
Q 48.734375 37.984375 48.734375 31.890625 
L 48.734375 0 
L 39.9375 0 
L 39.9375 31.546875 
Q 39.9375 36.921875 38.90625 39.578125 
Q 37.890625 42.234375 35.28125 43.8125 
Q 32.671875 45.40625 29.15625 45.40625 
Q 23.53125 45.40625 19.453125 41.84375 
Q 15.375 38.28125 15.375 28.328125 
L 15.375 0 
z
M 12.796875 59.515625 
Q 12.75 64.59375 15.578125 67.625 
Q 18.359375 70.65625 22.703125 70.65625 
Q 25.734375 70.65625 30.953125 68.015625 
Q 33.84375 66.546875 35.546875 66.546875 
Q 37.109375 66.546875 37.9375 67.40625 
Q 38.765625 68.265625 39.109375 70.796875 
L 45.453125 70.796875 
Q 45.3125 65.234375 42.640625 62.453125 
Q 39.984375 59.671875 35.890625 59.671875 
Q 32.8125 59.671875 27.78125 62.40625 
Q 24.515625 64.15625 23 64.15625 
Q 21.34375 64.15625 20.3125 62.984375 
Q 19.234375 61.8125 19.28125 59.515625 
z
" id="ArialMT-241"/>
       <path d="M 3.328125 25.921875 
Q 3.328125 40.328125 11.328125 47.265625 
Q 18.015625 53.03125 27.640625 53.03125 
Q 38.328125 53.03125 45.109375 46.015625 
Q 51.90625 39.015625 51.90625 26.65625 
Q 51.90625 16.65625 48.90625 10.90625 
Q 45.90625 5.171875 40.15625 2 
Q 34.421875 -1.171875 27.640625 -1.171875 
Q 16.75 -1.171875 10.03125 5.8125 
Q 3.328125 12.796875 3.328125 25.921875 
z
M 12.359375 25.921875 
Q 12.359375 15.96875 16.703125 11.015625 
Q 21.046875 6.0625 27.640625 6.0625 
Q 34.1875 6.0625 38.53125 11.03125 
Q 42.875 16.015625 42.875 26.21875 
Q 42.875 35.84375 38.5 40.796875 
Q 34.125 45.75 27.640625 45.75 
Q 21.046875 45.75 16.703125 40.8125 
Q 12.359375 35.890625 12.359375 25.921875 
z
" id="ArialMT-111"/>
       <path id="ArialMT-32"/>
       <path d="M 40.234375 0 
L 40.234375 6.546875 
Q 35.296875 -1.171875 25.734375 -1.171875 
Q 19.53125 -1.171875 14.328125 2.25 
Q 9.125 5.671875 6.265625 11.796875 
Q 3.421875 17.921875 3.421875 25.875 
Q 3.421875 33.640625 6 39.96875 
Q 8.59375 46.296875 13.765625 49.65625 
Q 18.953125 53.03125 25.34375 53.03125 
Q 30.03125 53.03125 33.6875 51.046875 
Q 37.359375 49.078125 39.65625 45.90625 
L 39.65625 71.578125 
L 48.390625 71.578125 
L 48.390625 0 
z
M 12.453125 25.875 
Q 12.453125 15.921875 16.640625 10.984375 
Q 20.84375 6.0625 26.5625 6.0625 
Q 32.328125 6.0625 36.34375 10.765625 
Q 40.375 15.484375 40.375 25.140625 
Q 40.375 35.796875 36.265625 40.765625 
Q 32.171875 45.75 26.171875 45.75 
Q 20.3125 45.75 16.375 40.96875 
Q 12.453125 36.1875 12.453125 25.875 
z
" id="ArialMT-100"/>
       <path d="M 42.09375 16.703125 
L 51.171875 15.578125 
Q 49.03125 7.625 43.21875 3.21875 
Q 37.40625 -1.171875 28.375 -1.171875 
Q 17 -1.171875 10.328125 5.828125 
Q 3.65625 12.84375 3.65625 25.484375 
Q 3.65625 38.578125 10.390625 45.796875 
Q 17.140625 53.03125 27.875 53.03125 
Q 38.28125 53.03125 44.875 45.953125 
Q 51.46875 38.875 51.46875 26.03125 
Q 51.46875 25.25 51.421875 23.6875 
L 12.75 23.6875 
Q 13.234375 15.140625 17.578125 10.59375 
Q 21.921875 6.0625 28.421875 6.0625 
Q 33.25 6.0625 36.671875 8.59375 
Q 40.09375 11.140625 42.09375 16.703125 
z
M 13.234375 30.90625 
L 42.1875 30.90625 
Q 41.609375 37.453125 38.875 40.71875 
Q 34.671875 45.796875 27.984375 45.796875 
Q 21.921875 45.796875 17.796875 41.75 
Q 13.671875 37.703125 13.234375 30.90625 
z
" id="ArialMT-101"/>
       <path d="M 3.078125 15.484375 
L 11.765625 16.84375 
Q 12.5 11.625 15.84375 8.84375 
Q 19.1875 6.0625 25.203125 6.0625 
Q 31.25 6.0625 34.171875 8.515625 
Q 37.109375 10.984375 37.109375 14.3125 
Q 37.109375 17.28125 34.515625 19 
Q 32.71875 20.171875 25.53125 21.96875 
Q 15.875 24.421875 12.140625 26.203125 
Q 8.40625 27.984375 6.46875 31.125 
Q 4.546875 34.28125 4.546875 38.09375 
Q 4.546875 41.546875 6.125 44.5 
Q 7.71875 47.46875 10.453125 49.421875 
Q 12.5 50.921875 16.03125 51.96875 
Q 19.578125 53.03125 23.640625 53.03125 
Q 29.734375 53.03125 34.34375 51.265625 
Q 38.96875 49.515625 41.15625 46.5 
Q 43.359375 43.5 44.1875 38.484375 
L 35.59375 37.3125 
Q 35.015625 41.3125 32.203125 43.546875 
Q 29.390625 45.796875 24.265625 45.796875 
Q 18.21875 45.796875 15.625 43.796875 
Q 13.03125 41.796875 13.03125 39.109375 
Q 13.03125 37.40625 14.109375 36.03125 
Q 15.1875 34.625 17.484375 33.6875 
Q 18.796875 33.203125 25.25 31.453125 
Q 34.578125 28.953125 38.25 27.359375 
Q 41.9375 25.78125 44.03125 22.75 
Q 46.140625 19.734375 46.140625 15.234375 
Q 46.140625 10.84375 43.578125 6.953125 
Q 41.015625 3.078125 36.171875 0.953125 
Q 31.34375 -1.171875 25.25 -1.171875 
Q 15.140625 -1.171875 9.84375 3.03125 
Q 4.546875 7.234375 3.078125 15.484375 
z
" id="ArialMT-115"/>
       <path d="M 40.578125 0 
L 40.578125 7.625 
Q 34.515625 -1.171875 24.125 -1.171875 
Q 19.53125 -1.171875 15.546875 0.578125 
Q 11.578125 2.34375 9.640625 5 
Q 7.71875 7.671875 6.9375 11.53125 
Q 6.390625 14.109375 6.390625 19.734375 
L 6.390625 51.859375 
L 15.1875 51.859375 
L 15.1875 23.09375 
Q 15.1875 16.21875 15.71875 13.8125 
Q 16.546875 10.359375 19.234375 8.375 
Q 21.921875 6.390625 25.875 6.390625 
Q 29.828125 6.390625 33.296875 8.421875 
Q 36.765625 10.453125 38.203125 13.9375 
Q 39.65625 17.4375 39.65625 24.078125 
L 39.65625 51.859375 
L 48.4375 51.859375 
L 48.4375 0 
z
" id="ArialMT-117"/>
       <path d="M 14.703125 0 
L 6.546875 0 
L 6.546875 71.578125 
L 15.328125 71.578125 
L 15.328125 46.046875 
Q 20.90625 53.03125 29.546875 53.03125 
Q 34.328125 53.03125 38.59375 51.09375 
Q 42.875 49.171875 45.625 45.671875 
Q 48.390625 42.1875 49.953125 37.25 
Q 51.515625 32.328125 51.515625 26.703125 
Q 51.515625 13.375 44.921875 6.09375 
Q 38.328125 -1.171875 29.109375 -1.171875 
Q 19.921875 -1.171875 14.703125 6.5 
z
M 14.59375 26.3125 
Q 14.59375 17 17.140625 12.84375 
Q 21.296875 6.0625 28.375 6.0625 
Q 34.125 6.0625 38.328125 11.0625 
Q 42.53125 16.0625 42.53125 25.984375 
Q 42.53125 36.140625 38.5 40.96875 
Q 34.46875 45.796875 28.765625 45.796875 
Q 23 45.796875 18.796875 40.796875 
Q 14.59375 35.796875 14.59375 26.3125 
z
" id="ArialMT-98"/>
       <path d="M 6.5 0 
L 6.5 51.859375 
L 14.40625 51.859375 
L 14.40625 44 
Q 17.4375 49.515625 20 51.265625 
Q 22.5625 53.03125 25.640625 53.03125 
Q 30.078125 53.03125 34.671875 50.203125 
L 31.640625 42.046875 
Q 28.421875 43.953125 25.203125 43.953125 
Q 22.3125 43.953125 20.015625 42.21875 
Q 17.71875 40.484375 16.75 37.40625 
Q 15.28125 32.71875 15.28125 27.15625 
L 15.28125 0 
z
" id="ArialMT-114"/>
       <path d="M 6.390625 0 
L 6.390625 71.578125 
L 15.1875 71.578125 
L 15.1875 0 
z
" id="ArialMT-108"/>
      </defs>
      <use xlink:href="#ArialMT-84"/>
      <use x="49.958984" xlink:href="#ArialMT-97"/>
      <use x="105.574219" xlink:href="#ArialMT-109"/>
      <use x="188.875" xlink:href="#ArialMT-97"/>
      <use x="244.490234" xlink:href="#ArialMT-241"/>
      <use x="300.105469" xlink:href="#ArialMT-111"/>
      <use x="355.720703" xlink:href="#ArialMT-32"/>
      <use x="383.503906" xlink:href="#ArialMT-100"/>
      <use x="439.119141" xlink:href="#ArialMT-101"/>
      <use x="494.734375" xlink:href="#ArialMT-32"/>
      <use x="522.517578" xlink:href="#ArialMT-115"/>
      <use x="572.517578" xlink:href="#ArialMT-117"/>
      <use x="628.132812" xlink:href="#ArialMT-98"/>
      <use x="683.748047" xlink:href="#ArialMT-97"/>
      <use x="739.363281" xlink:href="#ArialMT-114"/>
      <use x="772.664062" xlink:href="#ArialMT-98"/>
      <use x="828.279297" xlink:href="#ArialMT-111"/>
      <use x="883.894531" xlink:href="#ArialMT-108"/>
      <use x="906.111328" xlink:href="#ArialMT-101"/>
      <use x="961.726562" xlink:href="#ArialMT-115"/>
     </g>
    </g>
   </g>
   <g id="matplotlib.axis_2">
    <g id="ytick_1">
     <g id="line2d_7">
      <defs>
       <path d="M 0 0 
L 3.5 0 
" id="m55643fc614" style="stroke:#000000;stroke-width:0.8;"/>
      </defs>
      <g>
       <use style="stroke:#000000;stroke-width:0.8;" x="63" xlink:href="#m55643fc614" y="315"/>
      </g>
     </g>
     <g id="text_8">
      <!-- 0.0 -->
      <g transform="translate(43.596875 318.799219)scale(0.1 -0.1)">
       <defs>
        <path d="M 10.6875 12.40625 
L 21 12.40625 
L 21 0 
L 10.6875 0 
z
" id="DejaVuSans-46"/>
       </defs>
       <use xlink:href="#DejaVuSans-48"/>
       <use x="63.623047" xlink:href="#DejaVuSans-46"/>
       <use x="95.410156" xlink:href="#DejaVuSans-48"/>
      </g>
     </g>
    </g>
    <g id="ytick_2">
     <g id="line2d_8">
      <g>
       <use style="stroke:#000000;stroke-width:0.8;" x="63" xlink:href="#m55643fc614" y="263.228571"/>
      </g>
     </g>
     <g id="text_9">
      <!-- 0.2 -->
      <g transform="translate(43.596875 267.02779)scale(0.1 -0.1)">
       <use xlink:href="#DejaVuSans-48"/>
       <use x="63.623047" xlink:href="#DejaVuSans-46"/>
       <use x="95.410156" xlink:href="#DejaVuSans-50"/>
      </g>
     </g>
    </g>
    <g id="ytick_3">
     <g id="line2d_9">
      <g>
       <use style="stroke:#000000;stroke-width:0.8;" x="63" xlink:href="#m55643fc614" y="211.457143"/>
      </g>
     </g>
     <g id="text_10">
      <!-- 0.4 -->
      <g transform="translate(43.596875 215.256362)scale(0.1 -0.1)">
       <use xlink:href="#DejaVuSans-48"/>
       <use x="63.623047" xlink:href="#DejaVuSans-46"/>
       <use x="95.410156" xlink:href="#DejaVuSans-52"/>
      </g>
     </g>
    </g>
    <g id="ytick_4">
     <g id="line2d_10">
      <g>
       <use style="stroke:#000000;stroke-width:0.8;" x="63" xlink:href="#m55643fc614" y="159.685714"/>
      </g>
     </g>
     <g id="text_11">
      <!-- 0.6 -->
      <g transform="translate(43.596875 163.484933)scale(0.1 -0.1)">
       <use xlink:href="#DejaVuSans-48"/>
       <use x="63.623047" xlink:href="#DejaVuSans-46"/>
       <use x="95.410156" xlink:href="#DejaVuSans-54"/>
      </g>
     </g>
    </g>
    <g id="ytick_5">
     <g id="line2d_11">
      <g>
       <use style="stroke:#000000;stroke-width:0.8;" x="63" xlink:href="#m55643fc614" y="107.914286"/>
      </g>
     </g>
     <g id="text_12">
      <!-- 0.8 -->
      <g transform="translate(43.596875 111.713504)scale(0.1 -0.1)">
       <use xlink:href="#DejaVuSans-48"/>
       <use x="63.623047" xlink:href="#DejaVuSans-46"/>
       <use x="95.410156" xlink:href="#DejaVuSans-56"/>
      </g>
     </g>
    </g>
    <g id="ytick_6">
     <g id="line2d_12">
      <g>
       <use style="stroke:#000000;stroke-width:0.8;" x="63" xlink:href="#m55643fc614" y="56.142857"/>
      </g>
     </g>
     <g id="text_13">
      <!-- 1.0 -->
      <g transform="translate(43.596875 59.942076)scale(0.1 -0.1)">
       <use xlink:href="#DejaVuSans-49"/>
       <use x="63.623047" xlink:href="#DejaVuSans-46"/>
       <use x="95.410156" xlink:href="#DejaVuSans-48"/>
      </g>
     </g>
    </g>
    <g id="text_14">
     <!-- Probabilidad acumulada -->
     <g transform="translate(36.615625 259.565625)rotate(-90)scale(0.15 -0.15)">
      <defs>
       <path d="M 7.71875 0 
L 7.71875 71.578125 
L 34.71875 71.578125 
Q 41.84375 71.578125 45.609375 70.90625 
Q 50.875 70.015625 54.4375 67.546875 
Q 58.015625 65.09375 60.1875 60.640625 
Q 62.359375 56.203125 62.359375 50.875 
Q 62.359375 41.75 56.546875 35.421875 
Q 50.734375 29.109375 35.546875 29.109375 
L 17.1875 29.109375 
L 17.1875 0 
z
M 17.1875 37.546875 
L 35.6875 37.546875 
Q 44.875 37.546875 48.734375 40.96875 
Q 52.59375 44.390625 52.59375 50.59375 
Q 52.59375 55.078125 50.3125 58.265625 
Q 48.046875 61.46875 44.34375 62.5 
Q 41.9375 63.140625 35.5 63.140625 
L 17.1875 63.140625 
z
" id="ArialMT-80"/>
       <path d="M 6.640625 61.46875 
L 6.640625 71.578125 
L 15.4375 71.578125 
L 15.4375 61.46875 
z
M 6.640625 0 
L 6.640625 51.859375 
L 15.4375 51.859375 
L 15.4375 0 
z
" id="ArialMT-105"/>
       <path d="M 40.4375 19 
L 49.078125 17.875 
Q 47.65625 8.9375 41.8125 3.875 
Q 35.984375 -1.171875 27.484375 -1.171875 
Q 16.84375 -1.171875 10.375 5.78125 
Q 3.90625 12.75 3.90625 25.734375 
Q 3.90625 34.125 6.6875 40.421875 
Q 9.46875 46.734375 15.15625 49.875 
Q 20.84375 53.03125 27.546875 53.03125 
Q 35.984375 53.03125 41.359375 48.75 
Q 46.734375 44.484375 48.25 36.625 
L 39.703125 35.296875 
Q 38.484375 40.53125 35.375 43.15625 
Q 32.28125 45.796875 27.875 45.796875 
Q 21.234375 45.796875 17.078125 41.03125 
Q 12.9375 36.28125 12.9375 25.984375 
Q 12.9375 15.53125 16.9375 10.796875 
Q 20.953125 6.0625 27.390625 6.0625 
Q 32.5625 6.0625 36.03125 9.234375 
Q 39.5 12.40625 40.4375 19 
z
" id="ArialMT-99"/>
      </defs>
      <use xlink:href="#ArialMT-80"/>
      <use x="66.699219" xlink:href="#ArialMT-114"/>
      <use x="100" xlink:href="#ArialMT-111"/>
      <use x="155.615234" xlink:href="#ArialMT-98"/>
      <use x="211.230469" xlink:href="#ArialMT-97"/>
      <use x="266.845703" xlink:href="#ArialMT-98"/>
      <use x="322.460938" xlink:href="#ArialMT-105"/>
      <use x="344.677734" xlink:href="#ArialMT-108"/>
      <use x="366.894531" xlink:href="#ArialMT-105"/>
      <use x="389.111328" xlink:href="#ArialMT-100"/>
      <use x="444.726562" xlink:href="#ArialMT-97"/>
      <use x="500.341797" xlink:href="#ArialMT-100"/>
      <use x="555.957031" xlink:href="#ArialMT-32"/>
      <use x="583.740234" xlink:href="#ArialMT-97"/>
      <use x="639.355469" xlink:href="#ArialMT-99"/>
      <use x="689.355469" xlink:href="#ArialMT-117"/>
      <use x="744.970703" xlink:href="#ArialMT-109"/>
      <use x="828.271484" xlink:href="#ArialMT-117"/>
      <use x="883.886719" xlink:href="#ArialMT-108"/>
      <use x="906.103516" xlink:href="#ArialMT-97"/>
      <use x="961.71875" xlink:href="#ArialMT-100"/>
      <use x="1017.333984" xlink:href="#ArialMT-97"/>
     </g>
    </g>
   </g>
   <g id="patch_53">
    <path d="M 63 315 
L 63 43.2 
" style="fill:none;stroke:#bcbcbc;stroke-linecap:square;stroke-linejoin:miter;stroke-width:0.8;"/>
   </g>
   <g id="patch_54">
    <path d="M 453.6 315 
L 453.6 43.2 
" style="fill:none;stroke:#bcbcbc;stroke-linecap:square;stroke-linejoin:miter;stroke-width:0.8;"/>
   </g>
   <g id="patch_55">
    <path d="M 63 315 
L 453.6 315 
" style="fill:none;stroke:#bcbcbc;stroke-linecap:square;stroke-linejoin:miter;stroke-width:0.8;"/>
   </g>
   <g id="patch_56">
    <path d="M 63 43.2 
L 453.6 43.2 
" style="fill:none;stroke:#bcbcbc;stroke-linecap:square;stroke-linejoin:miter;stroke-width:0.8;"/>
   </g>
  </g>
 </g>
 <defs>
  <clipPath id="pcae2c24a30">
   <rect height="271.8" width="390.6" x="63" y="43.2"/>
  </clipPath>
 </defs>
</svg>
